<?xml version="1.0" encoding="UTF-8" standalone="no"?>
<!DOCTYPE svg PUBLIC "-//W3C//DTD SVG 1.1//EN"
 "http://www.w3.org/Graphics/SVG/1.1/DTD/svg11.dtd">
<!-- Generated by graphviz version 2.36.0 (20140111.2315)
 -->
<!-- Title: controllers_diagram Pages: 1 -->
<svg width="992pt" height="746pt"
 viewBox="0.00 0.00 992.00 746.00" xmlns="http://www.w3.org/2000/svg" xmlns:xlink="http://www.w3.org/1999/xlink">
<g id="graph0" class="graph" transform="scale(1 1) rotate(0) translate(4 742)">
<title>controllers_diagram</title>
<polygon fill="white" stroke="none" points="-4,4 -4,-742 988,-742 988,4 -4,4"/>
<!-- _diagram_info -->
<g id="node1" class="node"><title>_diagram_info</title>
<text text-anchor="start" x="778" y="-723.6" font-family="Times,serif" font-size="13.00">Controllers diagram</text>
<text text-anchor="start" x="778" y="-709.6" font-family="Times,serif" font-size="13.00">Date: Oct 15 2015 &#45; 13:33</text>
<text text-anchor="start" x="778" y="-695.6" font-family="Times,serif" font-size="13.00">Migration version: 20151015043318</text>
<text text-anchor="start" x="778" y="-681.6" font-family="Times,serif" font-size="13.00">Generated by RailRoady 1.1.1</text>
<text text-anchor="start" x="778" y="-667.6" font-family="Times,serif" font-size="13.00">http://railroady.prestonlee.com</text>
</g>
<!-- RolesController -->
<g id="node2" class="node"><title>RolesController</title>
<ellipse fill="none" stroke="black" cx="66.9441" cy="-298.041" rx="66.8882" ry="18"/>
<text text-anchor="middle" x="66.9441" y="-294.341" font-family="Times,serif" font-size="14.00">RolesController</text>
</g>
<!-- UsersController -->
<g id="node3" class="node"><title>UsersController</title>
<ellipse fill="none" stroke="black" cx="551.018" cy="-384.021" rx="66.8882" ry="18"/>
<text text-anchor="middle" x="551.018" y="-380.321" font-family="Times,serif" font-size="14.00">UsersController</text>
</g>
<!-- ErrorsController -->
<g id="node4" class="node"><title>ErrorsController</title>
<ellipse fill="none" stroke="black" cx="274.87" cy="-18" rx="68.7879" ry="18"/>
<text text-anchor="middle" x="274.87" y="-14.3" font-family="Times,serif" font-size="14.00">ErrorsController</text>
</g>
<!-- UserHabilitiesController -->
<g id="node5" class="node"><title>UserHabilitiesController</title>
<ellipse fill="none" stroke="black" cx="287.87" cy="-567.524" rx="97.4827" ry="18"/>
<text text-anchor="middle" x="287.87" y="-563.824" font-family="Times,serif" font-size="14.00">UserHabilitiesController</text>
</g>
<!-- AdminsController -->
<g id="node6" class="node"><title>AdminsController</title>
<ellipse fill="none" stroke="black" cx="392.538" cy="-429.516" rx="75.2868" ry="18"/>
<text text-anchor="middle" x="392.538" y="-425.816" font-family="Times,serif" font-size="14.00">AdminsController</text>
</g>
<!-- SubcategoriesController -->
<g id="node7" class="node"><title>SubcategoriesController</title>
<ellipse fill="none" stroke="black" cx="230.278" cy="-385.806" rx="96.3833" ry="18"/>
<text text-anchor="middle" x="230.278" y="-382.106" font-family="Times,serif" font-size="14.00">SubcategoriesController</text>
</g>
<!-- HomeController -->
<g id="node8" class="node"><title>HomeController</title>
<ellipse fill="none" stroke="black" cx="80.0121" cy="-54.8545" rx="68.7879" ry="18"/>
<text text-anchor="middle" x="80.0121" y="-51.1545" font-family="Times,serif" font-size="14.00">HomeController</text>
</g>
<!-- SessionsController -->
<g id="node9" class="node"><title>SessionsController</title>
<ellipse fill="none" stroke="black" cx="724.382" cy="-188.168" rx="77.1866" ry="18"/>
<text text-anchor="middle" x="724.382" y="-184.468" font-family="Times,serif" font-size="14.00">SessionsController</text>
</g>
<!-- PermissionsController -->
<g id="node10" class="node"><title>PermissionsController</title>
<ellipse fill="none" stroke="black" cx="222.874" cy="-202.882" rx="89.8845" ry="18"/>
<text text-anchor="middle" x="222.874" y="-199.182" font-family="Times,serif" font-size="14.00">PermissionsController</text>
</g>
<!-- HabilitiesController -->
<g id="node11" class="node"><title>HabilitiesController</title>
<ellipse fill="none" stroke="black" cx="484.177" cy="-19.831" rx="81.4863" ry="18"/>
<text text-anchor="middle" x="484.177" y="-16.131" font-family="Times,serif" font-size="14.00">HabilitiesController</text>
</g>
<!-- CategoriesController -->
<g id="node12" class="node"><title>CategoriesController</title>
<ellipse fill="none" stroke="black" cx="382.04" cy="-149.116" rx="84.485" ry="18"/>
<text text-anchor="middle" x="382.04" y="-145.416" font-family="Times,serif" font-size="14.00">CategoriesController</text>
</g>
<!-- ApplicationController -->
<g id="node13" class="node"><title>ApplicationController</title>
<ellipse fill="none" stroke="black" cx="390.63" cy="-287.927" rx="88.2844" ry="18"/>
<text text-anchor="middle" x="390.63" y="-284.227" font-family="Times,serif" font-size="14.00">ApplicationController</text>
</g>
<!-- ApplicationController&#45;&gt;RolesController -->
<g id="edge1" class="edge"><title>ApplicationController&#45;&gt;RolesController</title>
<path fill="none" stroke="black" d="M303.036,-290.664C249.676,-292.331 182.568,-294.428 133.551,-295.96"/>
</g>
<!-- ApplicationController&#45;&gt;UsersController -->
<g id="edge2" class="edge"><title>ApplicationController&#45;&gt;UsersController</title>
<path fill="none" stroke="black" d="M419.304,-305.107C448.768,-322.76 494.323,-350.053 523.397,-367.472"/>
</g>
<!-- ApplicationController&#45;&gt;ErrorsController -->
<g id="edge3" class="edge"><title>ApplicationController&#45;&gt;ErrorsController</title>
<path fill="none" stroke="black" d="M374.605,-270.11C353.006,-245.024 315.061,-196.972 295.95,-148.964 280.705,-110.664 276.473,-61.895 275.306,-36.0223"/>
</g>
<!-- ApplicationController&#45;&gt;UserHabilitiesController -->
<g id="edge4" class="edge"><title>ApplicationController&#45;&gt;UserHabilitiesController</title>
<path fill="none" stroke="black" d="M378.879,-305.907C362.321,-332.045 332.279,-382.547 315.546,-429.432 300.751,-470.883 293.079,-522.314 289.828,-549.198"/>
</g>
<!-- ApplicationController&#45;&gt;AdminsController -->
<g id="edge5" class="edge"><title>ApplicationController&#45;&gt;AdminsController</title>
<path fill="none" stroke="black" d="M390.876,-306.147C391.242,-333.334 391.928,-384.219 392.294,-411.365"/>
</g>
<!-- ApplicationController&#45;&gt;SubcategoriesController -->
<g id="edge6" class="edge"><title>ApplicationController&#45;&gt;SubcategoriesController</title>
<path fill="none" stroke="black" d="M362.331,-305.201C333.111,-323.037 287.779,-350.708 258.563,-368.541"/>
</g>
<!-- ApplicationController&#45;&gt;HomeController -->
<g id="edge7" class="edge"><title>ApplicationController&#45;&gt;HomeController</title>
<path fill="none" stroke="black" d="M376.939,-270.035C362.525,-251.886 338.574,-223.611 314.164,-203.012 247.62,-146.857 158.123,-96.046 111.394,-71.0935"/>
</g>
<!-- ApplicationController&#45;&gt;SessionsController -->
<g id="edge8" class="edge"><title>ApplicationController&#45;&gt;SessionsController</title>
<path fill="none" stroke="black" d="M440.596,-272.992C504.424,-253.914 614.11,-221.128 676.781,-202.396"/>
</g>
<!-- ApplicationController&#45;&gt;PermissionsController -->
<g id="edge9" class="edge"><title>ApplicationController&#45;&gt;PermissionsController</title>
<path fill="none" stroke="black" d="M357.487,-271.125C328.077,-256.215 285.337,-234.548 255.948,-219.649"/>
</g>
<!-- ApplicationController&#45;&gt;HabilitiesController -->
<g id="edge10" class="edge"><title>ApplicationController&#45;&gt;HabilitiesController</title>
<path fill="none" stroke="black" d="M403.875,-269.716C421.705,-244.183 452.937,-195.656 468.13,-149.268 480.675,-110.964 483.533,-63.349 484.11,-37.8895"/>
</g>
<!-- ApplicationController&#45;&gt;CategoriesController -->
<g id="edge11" class="edge"><title>ApplicationController&#45;&gt;CategoriesController</title>
<path fill="none" stroke="black" d="M389.507,-269.78C387.861,-243.177 384.81,-193.873 383.164,-167.267"/>
</g>
<!-- IdeasController -->
<g id="node14" class="node"><title>IdeasController</title>
<ellipse fill="none" stroke="black" cx="721.347" cy="-361.646" rx="65.7887" ry="18"/>
<text text-anchor="middle" x="721.347" y="-357.946" font-family="Times,serif" font-size="14.00">IdeasController</text>
</g>
<!-- ApplicationController&#45;&gt;IdeasController -->
<g id="edge12" class="edge"><title>ApplicationController&#45;&gt;IdeasController</title>
<path fill="none" stroke="black" d="M450.52,-301.277C513.342,-315.28 611.021,-337.053 670.306,-350.268"/>
</g>
<!-- Api::V1::BaseController -->
<g id="node16" class="node"><title>Api::V1::BaseController</title>
<ellipse fill="none" stroke="black" cx="496.855" cy="-566.351" rx="97.4827" ry="18"/>
<text text-anchor="middle" x="496.855" y="-562.651" font-family="Times,serif" font-size="14.00">Api::V1::BaseController</text>
</g>
<!-- ApplicationController&#45;&gt;Api::V1::BaseController -->
<g id="edge14" class="edge"><title>ApplicationController&#45;&gt;Api::V1::BaseController</title>
<path fill="none" stroke="black" d="M403.026,-305.832C420.484,-331.886 452.124,-382.307 469.531,-429.599 484.584,-470.497 491.977,-521.49 495.04,-548.163"/>
</g>
<!-- LandingPageController -->
<g id="node17" class="node"><title>LandingPageController</title>
<ellipse fill="none" stroke="black" cx="548.959" cy="-200.24" rx="92.8835" ry="18"/>
<text text-anchor="middle" x="548.959" y="-196.54" font-family="Times,serif" font-size="14.00">LandingPageController</text>
</g>
<!-- ApplicationController&#45;&gt;LandingPageController -->
<g id="edge15" class="edge"><title>ApplicationController&#45;&gt;LandingPageController</title>
<path fill="none" stroke="black" d="M421.157,-271.02C449.104,-255.542 490.254,-232.752 518.256,-217.244"/>
</g>
<!-- PostulationsController -->
<g id="node18" class="node"><title>PostulationsController</title>
<ellipse fill="none" stroke="black" cx="694.354" cy="-22.2045" rx="89.8845" ry="18"/>
<text text-anchor="middle" x="694.354" y="-18.5045" font-family="Times,serif" font-size="14.00">PostulationsController</text>
</g>
<!-- ApplicationController&#45;&gt;PostulationsController -->
<g id="edge16" class="edge"><title>ApplicationController&#45;&gt;PostulationsController</title>
<path fill="none" stroke="black" d="M401.432,-269.898C413.109,-251.252 432.951,-221.882 454.417,-200.21 522.308,-131.668 618.206,-68.7584 665.574,-39.4793"/>
</g>
<!-- MaturesController -->
<g id="node19" class="node"><title>MaturesController</title>
<ellipse fill="none" stroke="black" cx="85.0727" cy="-535.78" rx="76.0865" ry="18"/>
<text text-anchor="middle" x="85.0727" y="-532.08" font-family="Times,serif" font-size="14.00">MaturesController</text>
</g>
<!-- ApplicationController&#45;&gt;MaturesController -->
<g id="edge17" class="edge"><title>ApplicationController&#45;&gt;MaturesController</title>
<path fill="none" stroke="black" d="M382.286,-305.892C371.853,-326.941 352.374,-361.975 328.069,-385.904 265.198,-447.802 172.278,-496.082 121.492,-519.756"/>
</g>
<!-- Api::V1::UsersController -->
<g id="node15" class="node"><title>Api::V1::UsersController</title>
<ellipse fill="none" stroke="black" cx="704.14" cy="-551.435" rx="100.983" ry="18"/>
<text text-anchor="middle" x="704.14" y="-547.735" font-family="Times,serif" font-size="14.00">Api::V1::UsersController</text>
</g>
<!-- Api::V1::BaseController&#45;&gt;Api::V1::UsersController -->
<g id="edge13" class="edge"><title>Api::V1::BaseController&#45;&gt;Api::V1::UsersController</title>
<path fill="none" stroke="black" d="M587.773,-559.809C595.279,-559.269 602.875,-558.722 610.401,-558.181"/>
</g>
</g>
</svg>
