<?xml version="1.0" encoding="UTF-8" standalone="no"?>
<!DOCTYPE svg PUBLIC "-//W3C//DTD SVG 1.1//EN"
 "http://www.w3.org/Graphics/SVG/1.1/DTD/svg11.dtd">
<!-- Generated by graphviz version 2.36.0 (20140111.2315)
 -->
<!-- Title: controllers_diagram Pages: 1 -->
<svg width="1134pt" height="1210pt"
 viewBox="0.00 0.00 1134.00 1210.24" xmlns="http://www.w3.org/2000/svg" xmlns:xlink="http://www.w3.org/1999/xlink">
<g id="graph0" class="graph" transform="scale(1 1) rotate(0) translate(4 1206.24)">
<title>controllers_diagram</title>
<polygon fill="white" stroke="none" points="-4,4 -4,-1206.24 1130,-1206.24 1130,4 -4,4"/>
<!-- _diagram_info -->
<g id="node1" class="node"><title>_diagram_info</title>
<text text-anchor="start" x="920" y="-139.6" font-family="Times,serif" font-size="13.00">Controllers diagram</text>
<text text-anchor="start" x="920" y="-125.6" font-family="Times,serif" font-size="13.00">Date: Oct 15 2015 &#45; 13:33</text>
<text text-anchor="start" x="920" y="-111.6" font-family="Times,serif" font-size="13.00">Migration version: 20151015043318</text>
<text text-anchor="start" x="920" y="-97.6" font-family="Times,serif" font-size="13.00">Generated by RailRoady 1.1.1</text>
<text text-anchor="start" x="920" y="-83.6" font-family="Times,serif" font-size="13.00">http://railroady.prestonlee.com</text>
</g>
<!-- RolesController -->
<g id="node2" class="node"><title>RolesController</title>
<path fill="none" stroke="black" d="M32.2447,-519.749C32.2447,-519.749 111.245,-519.749 111.245,-519.749 117.245,-519.749 123.245,-525.749 123.245,-531.749 123.245,-531.749 123.245,-720.749 123.245,-720.749 123.245,-726.749 117.245,-732.749 111.245,-732.749 111.245,-732.749 32.2447,-732.749 32.2447,-732.749 26.2447,-732.749 20.2447,-726.749 20.2447,-720.749 20.2447,-720.749 20.2447,-531.749 20.2447,-531.749 20.2447,-525.749 26.2447,-519.749 32.2447,-519.749"/>
<text text-anchor="middle" x="71.7447" y="-717.549" font-family="Times,serif" font-size="14.00">RolesController</text>
<polyline fill="none" stroke="black" points="20.2447,-709.749 123.245,-709.749 "/>
<text text-anchor="start" x="28.2447" y="-694.549" font-family="Times,serif" font-size="14.00">create</text>
<text text-anchor="start" x="28.2447" y="-679.549" font-family="Times,serif" font-size="14.00">destroy</text>
<text text-anchor="start" x="28.2447" y="-664.549" font-family="Times,serif" font-size="14.00">edit</text>
<text text-anchor="start" x="28.2447" y="-649.549" font-family="Times,serif" font-size="14.00">index</text>
<text text-anchor="start" x="28.2447" y="-634.549" font-family="Times,serif" font-size="14.00">new</text>
<text text-anchor="start" x="28.2447" y="-619.549" font-family="Times,serif" font-size="14.00">show</text>
<text text-anchor="start" x="28.2447" y="-604.549" font-family="Times,serif" font-size="14.00">update</text>
<polyline fill="none" stroke="black" points="20.2447,-596.749 123.245,-596.749 "/>
<polyline fill="none" stroke="black" points="20.2447,-572.749 123.245,-572.749 "/>
<text text-anchor="start" x="28.2447" y="-557.549" font-family="Times,serif" font-size="14.00">_layout</text>
<text text-anchor="start" x="28.2447" y="-542.549" font-family="Times,serif" font-size="14.00">role_params</text>
<text text-anchor="start" x="28.2447" y="-527.549" font-family="Times,serif" font-size="14.00">set_role</text>
</g>
<!-- UsersController -->
<g id="node3" class="node"><title>UsersController</title>
<path fill="none" stroke="black" d="M670.586,-733.891C670.586,-733.891 749.586,-733.891 749.586,-733.891 755.586,-733.891 761.586,-739.891 761.586,-745.891 761.586,-745.891 761.586,-949.891 761.586,-949.891 761.586,-955.891 755.586,-961.891 749.586,-961.891 749.586,-961.891 670.586,-961.891 670.586,-961.891 664.586,-961.891 658.586,-955.891 658.586,-949.891 658.586,-949.891 658.586,-745.891 658.586,-745.891 658.586,-739.891 664.586,-733.891 670.586,-733.891"/>
<text text-anchor="middle" x="710.086" y="-946.691" font-family="Times,serif" font-size="14.00">UsersController</text>
<polyline fill="none" stroke="black" points="658.586,-938.891 761.586,-938.891 "/>
<text text-anchor="start" x="666.586" y="-923.691" font-family="Times,serif" font-size="14.00">activate</text>
<text text-anchor="start" x="666.586" y="-908.691" font-family="Times,serif" font-size="14.00">create</text>
<text text-anchor="start" x="666.586" y="-893.691" font-family="Times,serif" font-size="14.00">destroy</text>
<text text-anchor="start" x="666.586" y="-878.691" font-family="Times,serif" font-size="14.00">edit</text>
<text text-anchor="start" x="666.586" y="-863.691" font-family="Times,serif" font-size="14.00">index</text>
<text text-anchor="start" x="666.586" y="-848.691" font-family="Times,serif" font-size="14.00">new</text>
<text text-anchor="start" x="666.586" y="-833.691" font-family="Times,serif" font-size="14.00">show</text>
<text text-anchor="start" x="666.586" y="-818.691" font-family="Times,serif" font-size="14.00">update</text>
<polyline fill="none" stroke="black" points="658.586,-810.891 761.586,-810.891 "/>
<polyline fill="none" stroke="black" points="658.586,-786.891 761.586,-786.891 "/>
<text text-anchor="start" x="666.586" y="-771.691" font-family="Times,serif" font-size="14.00">_layout</text>
<text text-anchor="start" x="666.586" y="-756.691" font-family="Times,serif" font-size="14.00">set_user</text>
<text text-anchor="start" x="666.586" y="-741.691" font-family="Times,serif" font-size="14.00">user_params</text>
</g>
<!-- ErrorsController -->
<g id="node4" class="node"><title>ErrorsController</title>
<path fill="none" stroke="black" d="M281.147,-46.4094C281.147,-46.4094 363.147,-46.4094 363.147,-46.4094 369.147,-46.4094 375.147,-52.4094 375.147,-58.4094 375.147,-58.4094 375.147,-127.409 375.147,-127.409 375.147,-133.409 369.147,-139.409 363.147,-139.409 363.147,-139.409 281.147,-139.409 281.147,-139.409 275.147,-139.409 269.147,-133.409 269.147,-127.409 269.147,-127.409 269.147,-58.4094 269.147,-58.4094 269.147,-52.4094 275.147,-46.4094 281.147,-46.4094"/>
<text text-anchor="middle" x="322.147" y="-124.209" font-family="Times,serif" font-size="14.00">ErrorsController</text>
<polyline fill="none" stroke="black" points="269.147,-116.409 375.147,-116.409 "/>
<text text-anchor="start" x="277.147" y="-101.209" font-family="Times,serif" font-size="14.00">handle404</text>
<polyline fill="none" stroke="black" points="269.147,-93.4094 375.147,-93.4094 "/>
<polyline fill="none" stroke="black" points="269.147,-69.4094 375.147,-69.4094 "/>
<text text-anchor="start" x="277.147" y="-54.2094" font-family="Times,serif" font-size="14.00">_layout</text>
</g>
<!-- UserHabilitiesController -->
<g id="node5" class="node"><title>UserHabilitiesController</title>
<path fill="none" stroke="black" d="M44.0544,-988.739C44.0544,-988.739 170.054,-988.739 170.054,-988.739 176.054,-988.739 182.054,-994.739 182.054,-1000.74 182.054,-1000.74 182.054,-1189.74 182.054,-1189.74 182.054,-1195.74 176.054,-1201.74 170.054,-1201.74 170.054,-1201.74 44.0544,-1201.74 44.0544,-1201.74 38.0544,-1201.74 32.0544,-1195.74 32.0544,-1189.74 32.0544,-1189.74 32.0544,-1000.74 32.0544,-1000.74 32.0544,-994.739 38.0544,-988.739 44.0544,-988.739"/>
<text text-anchor="middle" x="107.054" y="-1186.54" font-family="Times,serif" font-size="14.00">UserHabilitiesController</text>
<polyline fill="none" stroke="black" points="32.0544,-1178.74 182.054,-1178.74 "/>
<text text-anchor="start" x="40.0544" y="-1163.54" font-family="Times,serif" font-size="14.00">create</text>
<text text-anchor="start" x="40.0544" y="-1148.54" font-family="Times,serif" font-size="14.00">destroy</text>
<text text-anchor="start" x="40.0544" y="-1133.54" font-family="Times,serif" font-size="14.00">edit</text>
<text text-anchor="start" x="40.0544" y="-1118.54" font-family="Times,serif" font-size="14.00">index</text>
<text text-anchor="start" x="40.0544" y="-1103.54" font-family="Times,serif" font-size="14.00">new</text>
<text text-anchor="start" x="40.0544" y="-1088.54" font-family="Times,serif" font-size="14.00">show</text>
<text text-anchor="start" x="40.0544" y="-1073.54" font-family="Times,serif" font-size="14.00">update</text>
<polyline fill="none" stroke="black" points="32.0544,-1065.74 182.054,-1065.74 "/>
<polyline fill="none" stroke="black" points="32.0544,-1041.74 182.054,-1041.74 "/>
<text text-anchor="start" x="40.0544" y="-1026.54" font-family="Times,serif" font-size="14.00">_layout</text>
<text text-anchor="start" x="40.0544" y="-1011.54" font-family="Times,serif" font-size="14.00">set_user_hability</text>
<text text-anchor="start" x="40.0544" y="-996.539" font-family="Times,serif" font-size="14.00">user_hability_params</text>
</g>
<!-- AdminsController -->
<g id="node6" class="node"><title>AdminsController</title>
<path fill="none" stroke="black" d="M449.074,-720.946C449.074,-720.946 541.074,-720.946 541.074,-720.946 547.074,-720.946 553.074,-726.946 553.074,-732.946 553.074,-732.946 553.074,-801.946 553.074,-801.946 553.074,-807.946 547.074,-813.946 541.074,-813.946 541.074,-813.946 449.074,-813.946 449.074,-813.946 443.074,-813.946 437.074,-807.946 437.074,-801.946 437.074,-801.946 437.074,-732.946 437.074,-732.946 437.074,-726.946 443.074,-720.946 449.074,-720.946"/>
<text text-anchor="middle" x="495.074" y="-798.746" font-family="Times,serif" font-size="14.00">AdminsController</text>
<polyline fill="none" stroke="black" points="437.074,-790.946 553.074,-790.946 "/>
<text text-anchor="start" x="445.074" y="-775.746" font-family="Times,serif" font-size="14.00">dashboard</text>
<polyline fill="none" stroke="black" points="437.074,-767.946 553.074,-767.946 "/>
<polyline fill="none" stroke="black" points="437.074,-743.946 553.074,-743.946 "/>
<text text-anchor="start" x="445.074" y="-728.746" font-family="Times,serif" font-size="14.00">_layout</text>
</g>
<!-- SubcategoriesController -->
<g id="node7" class="node"><title>SubcategoriesController</title>
<path fill="none" stroke="black" d="M225.5,-739.392C225.5,-739.392 349.5,-739.392 349.5,-739.392 355.5,-739.392 361.5,-745.392 361.5,-751.392 361.5,-751.392 361.5,-940.392 361.5,-940.392 361.5,-946.392 355.5,-952.392 349.5,-952.392 349.5,-952.392 225.5,-952.392 225.5,-952.392 219.5,-952.392 213.5,-946.392 213.5,-940.392 213.5,-940.392 213.5,-751.392 213.5,-751.392 213.5,-745.392 219.5,-739.392 225.5,-739.392"/>
<text text-anchor="middle" x="287.5" y="-937.192" font-family="Times,serif" font-size="14.00">SubcategoriesController</text>
<polyline fill="none" stroke="black" points="213.5,-929.392 361.5,-929.392 "/>
<text text-anchor="start" x="221.5" y="-914.192" font-family="Times,serif" font-size="14.00">create</text>
<text text-anchor="start" x="221.5" y="-899.192" font-family="Times,serif" font-size="14.00">destroy</text>
<text text-anchor="start" x="221.5" y="-884.192" font-family="Times,serif" font-size="14.00">edit</text>
<text text-anchor="start" x="221.5" y="-869.192" font-family="Times,serif" font-size="14.00">index</text>
<text text-anchor="start" x="221.5" y="-854.192" font-family="Times,serif" font-size="14.00">new</text>
<text text-anchor="start" x="221.5" y="-839.192" font-family="Times,serif" font-size="14.00">show</text>
<text text-anchor="start" x="221.5" y="-824.192" font-family="Times,serif" font-size="14.00">update</text>
<polyline fill="none" stroke="black" points="213.5,-816.392 361.5,-816.392 "/>
<polyline fill="none" stroke="black" points="213.5,-792.392 361.5,-792.392 "/>
<text text-anchor="start" x="221.5" y="-777.192" font-family="Times,serif" font-size="14.00">_layout</text>
<text text-anchor="start" x="221.5" y="-762.192" font-family="Times,serif" font-size="14.00">set_subcategory</text>
<text text-anchor="start" x="221.5" y="-747.192" font-family="Times,serif" font-size="14.00">subcategory_params</text>
</g>
<!-- HomeController -->
<g id="node8" class="node"><title>HomeController</title>
<path fill="none" stroke="black" d="M31.2577,-71.7881C31.2577,-71.7881 113.258,-71.7881 113.258,-71.7881 119.258,-71.7881 125.258,-77.7881 125.258,-83.7881 125.258,-83.7881 125.258,-182.788 125.258,-182.788 125.258,-188.788 119.258,-194.788 113.258,-194.788 113.258,-194.788 31.2577,-194.788 31.2577,-194.788 25.2577,-194.788 19.2577,-188.788 19.2577,-182.788 19.2577,-182.788 19.2577,-83.7881 19.2577,-83.7881 19.2577,-77.7881 25.2577,-71.7881 31.2577,-71.7881"/>
<text text-anchor="middle" x="72.2577" y="-179.588" font-family="Times,serif" font-size="14.00">HomeController</text>
<polyline fill="none" stroke="black" points="19.2577,-171.788 125.258,-171.788 "/>
<text text-anchor="start" x="27.2577" y="-156.588" font-family="Times,serif" font-size="14.00">contact</text>
<text text-anchor="start" x="27.2577" y="-141.588" font-family="Times,serif" font-size="14.00">index</text>
<text text-anchor="start" x="27.2577" y="-126.588" font-family="Times,serif" font-size="14.00">send_contact</text>
<polyline fill="none" stroke="black" points="19.2577,-118.788 125.258,-118.788 "/>
<polyline fill="none" stroke="black" points="19.2577,-94.7881 125.258,-94.7881 "/>
<text text-anchor="start" x="27.2577" y="-79.5881" font-family="Times,serif" font-size="14.00">_layout</text>
</g>
<!-- SessionsController -->
<g id="node9" class="node"><title>SessionsController</title>
<path fill="none" stroke="black" d="M661.011,-269.487C661.011,-269.487 770.011,-269.487 770.011,-269.487 776.011,-269.487 782.011,-275.487 782.011,-281.487 782.011,-281.487 782.011,-470.487 782.011,-470.487 782.011,-476.487 776.011,-482.487 770.011,-482.487 770.011,-482.487 661.011,-482.487 661.011,-482.487 655.011,-482.487 649.011,-476.487 649.011,-470.487 649.011,-470.487 649.011,-281.487 649.011,-281.487 649.011,-275.487 655.011,-269.487 661.011,-269.487"/>
<text text-anchor="middle" x="715.511" y="-467.287" font-family="Times,serif" font-size="14.00">SessionsController</text>
<polyline fill="none" stroke="black" points="649.011,-459.487 782.011,-459.487 "/>
<text text-anchor="start" x="657.011" y="-444.287" font-family="Times,serif" font-size="14.00">change_password</text>
<text text-anchor="start" x="657.011" y="-429.287" font-family="Times,serif" font-size="14.00">create</text>
<text text-anchor="start" x="657.011" y="-414.287" font-family="Times,serif" font-size="14.00">create_with_oauth</text>
<text text-anchor="start" x="657.011" y="-399.287" font-family="Times,serif" font-size="14.00">destroy</text>
<text text-anchor="start" x="657.011" y="-384.287" font-family="Times,serif" font-size="14.00">do_change_password</text>
<text text-anchor="start" x="657.011" y="-369.287" font-family="Times,serif" font-size="14.00">new</text>
<text text-anchor="start" x="657.011" y="-354.287" font-family="Times,serif" font-size="14.00">recover_pass</text>
<text text-anchor="start" x="657.011" y="-339.287" font-family="Times,serif" font-size="14.00">send_pass_recovery</text>
<text text-anchor="start" x="657.011" y="-324.287" font-family="Times,serif" font-size="14.00">unsubscribe</text>
<polyline fill="none" stroke="black" points="649.011,-316.487 782.011,-316.487 "/>
<polyline fill="none" stroke="black" points="649.011,-292.487 782.011,-292.487 "/>
<text text-anchor="start" x="657.011" y="-277.287" font-family="Times,serif" font-size="14.00">_layout</text>
</g>
<!-- PermissionsController -->
<g id="node10" class="node"><title>PermissionsController</title>
<path fill="none" stroke="black" d="M12.6169,-294.231C12.6169,-294.231 126.617,-294.231 126.617,-294.231 132.617,-294.231 138.617,-300.231 138.617,-306.231 138.617,-306.231 138.617,-495.231 138.617,-495.231 138.617,-501.231 132.617,-507.231 126.617,-507.231 126.617,-507.231 12.6169,-507.231 12.6169,-507.231 6.61693,-507.231 0.616929,-501.231 0.616929,-495.231 0.616929,-495.231 0.616929,-306.231 0.616929,-306.231 0.616929,-300.231 6.61693,-294.231 12.6169,-294.231"/>
<text text-anchor="middle" x="69.6169" y="-492.031" font-family="Times,serif" font-size="14.00">PermissionsController</text>
<polyline fill="none" stroke="black" points="0.616929,-484.231 138.617,-484.231 "/>
<text text-anchor="start" x="8.61693" y="-469.031" font-family="Times,serif" font-size="14.00">create</text>
<text text-anchor="start" x="8.61693" y="-454.031" font-family="Times,serif" font-size="14.00">destroy</text>
<text text-anchor="start" x="8.61693" y="-439.031" font-family="Times,serif" font-size="14.00">edit</text>
<text text-anchor="start" x="8.61693" y="-424.031" font-family="Times,serif" font-size="14.00">index</text>
<text text-anchor="start" x="8.61693" y="-409.031" font-family="Times,serif" font-size="14.00">new</text>
<text text-anchor="start" x="8.61693" y="-394.031" font-family="Times,serif" font-size="14.00">show</text>
<text text-anchor="start" x="8.61693" y="-379.031" font-family="Times,serif" font-size="14.00">update</text>
<polyline fill="none" stroke="black" points="0.616929,-371.231 138.617,-371.231 "/>
<polyline fill="none" stroke="black" points="0.616929,-347.231 138.617,-347.231 "/>
<text text-anchor="start" x="8.61693" y="-332.031" font-family="Times,serif" font-size="14.00">_layout</text>
<text text-anchor="start" x="8.61693" y="-317.031" font-family="Times,serif" font-size="14.00">permission_params</text>
<text text-anchor="start" x="8.61693" y="-302.031" font-family="Times,serif" font-size="14.00">set_permission</text>
</g>
<!-- HabilitiesController -->
<g id="node11" class="node"><title>HabilitiesController</title>
<path fill="none" stroke="black" d="M452.276,-102.065C452.276,-102.065 553.276,-102.065 553.276,-102.065 559.276,-102.065 565.276,-108.065 565.276,-114.065 565.276,-114.065 565.276,-303.065 565.276,-303.065 565.276,-309.065 559.276,-315.065 553.276,-315.065 553.276,-315.065 452.276,-315.065 452.276,-315.065 446.276,-315.065 440.276,-309.065 440.276,-303.065 440.276,-303.065 440.276,-114.065 440.276,-114.065 440.276,-108.065 446.276,-102.065 452.276,-102.065"/>
<text text-anchor="middle" x="502.776" y="-299.865" font-family="Times,serif" font-size="14.00">HabilitiesController</text>
<polyline fill="none" stroke="black" points="440.276,-292.065 565.276,-292.065 "/>
<text text-anchor="start" x="448.276" y="-276.865" font-family="Times,serif" font-size="14.00">create</text>
<text text-anchor="start" x="448.276" y="-261.865" font-family="Times,serif" font-size="14.00">destroy</text>
<text text-anchor="start" x="448.276" y="-246.865" font-family="Times,serif" font-size="14.00">edit</text>
<text text-anchor="start" x="448.276" y="-231.865" font-family="Times,serif" font-size="14.00">index</text>
<text text-anchor="start" x="448.276" y="-216.865" font-family="Times,serif" font-size="14.00">new</text>
<text text-anchor="start" x="448.276" y="-201.865" font-family="Times,serif" font-size="14.00">show</text>
<text text-anchor="start" x="448.276" y="-186.865" font-family="Times,serif" font-size="14.00">update</text>
<polyline fill="none" stroke="black" points="440.276,-179.065 565.276,-179.065 "/>
<polyline fill="none" stroke="black" points="440.276,-155.065 565.276,-155.065 "/>
<text text-anchor="start" x="448.276" y="-139.865" font-family="Times,serif" font-size="14.00">_layout</text>
<text text-anchor="start" x="448.276" y="-124.865" font-family="Times,serif" font-size="14.00">hability_params</text>
<text text-anchor="start" x="448.276" y="-109.865" font-family="Times,serif" font-size="14.00">set_hability</text>
</g>
<!-- CategoriesController -->
<g id="node12" class="node"><title>CategoriesController</title>
<path fill="none" stroke="black" d="M247.727,-253.522C247.727,-253.522 353.727,-253.522 353.727,-253.522 359.727,-253.522 365.727,-259.522 365.727,-265.522 365.727,-265.522 365.727,-454.522 365.727,-454.522 365.727,-460.522 359.727,-466.522 353.727,-466.522 353.727,-466.522 247.727,-466.522 247.727,-466.522 241.727,-466.522 235.727,-460.522 235.727,-454.522 235.727,-454.522 235.727,-265.522 235.727,-265.522 235.727,-259.522 241.727,-253.522 247.727,-253.522"/>
<text text-anchor="middle" x="300.727" y="-451.322" font-family="Times,serif" font-size="14.00">CategoriesController</text>
<polyline fill="none" stroke="black" points="235.727,-443.522 365.727,-443.522 "/>
<text text-anchor="start" x="243.727" y="-428.322" font-family="Times,serif" font-size="14.00">create</text>
<text text-anchor="start" x="243.727" y="-413.322" font-family="Times,serif" font-size="14.00">destroy</text>
<text text-anchor="start" x="243.727" y="-398.322" font-family="Times,serif" font-size="14.00">edit</text>
<text text-anchor="start" x="243.727" y="-383.322" font-family="Times,serif" font-size="14.00">index</text>
<text text-anchor="start" x="243.727" y="-368.322" font-family="Times,serif" font-size="14.00">new</text>
<text text-anchor="start" x="243.727" y="-353.322" font-family="Times,serif" font-size="14.00">show</text>
<text text-anchor="start" x="243.727" y="-338.322" font-family="Times,serif" font-size="14.00">update</text>
<polyline fill="none" stroke="black" points="235.727,-330.522 365.727,-330.522 "/>
<polyline fill="none" stroke="black" points="235.727,-306.522 365.727,-306.522 "/>
<text text-anchor="start" x="243.727" y="-291.322" font-family="Times,serif" font-size="14.00">_layout</text>
<text text-anchor="start" x="243.727" y="-276.322" font-family="Times,serif" font-size="14.00">category_params</text>
<text text-anchor="start" x="243.727" y="-261.322" font-family="Times,serif" font-size="14.00">set_category</text>
</g>
<!-- ApplicationController -->
<g id="node13" class="node"><title>ApplicationController</title>
<path fill="none" stroke="black" d="M244.16,-547.661C244.16,-547.661 356.16,-547.661 356.16,-547.661 362.16,-547.661 368.16,-553.661 368.16,-559.661 368.16,-559.661 368.16,-643.661 368.16,-643.661 368.16,-649.661 362.16,-655.661 356.16,-655.661 356.16,-655.661 244.16,-655.661 244.16,-655.661 238.16,-655.661 232.16,-649.661 232.16,-643.661 232.16,-643.661 232.16,-559.661 232.16,-559.661 232.16,-553.661 238.16,-547.661 244.16,-547.661"/>
<text text-anchor="middle" x="300.16" y="-640.461" font-family="Times,serif" font-size="14.00">ApplicationController</text>
<polyline fill="none" stroke="black" points="232.16,-632.661 368.16,-632.661 "/>
<text text-anchor="start" x="240.16" y="-617.461" font-family="Times,serif" font-size="14.00">set_locale</text>
<polyline fill="none" stroke="black" points="232.16,-609.661 368.16,-609.661 "/>
<polyline fill="none" stroke="black" points="232.16,-585.661 368.16,-585.661 "/>
<text text-anchor="start" x="240.16" y="-570.461" font-family="Times,serif" font-size="14.00">_layout</text>
<text text-anchor="start" x="240.16" y="-555.461" font-family="Times,serif" font-size="14.00">current_user</text>
</g>
<!-- ApplicationController&#45;&gt;RolesController -->
<g id="edge1" class="edge"><title>ApplicationController&#45;&gt;RolesController</title>
<path fill="none" stroke="black" d="M231.937,-609.005C197.101,-612.755 155.412,-617.242 123.297,-620.7"/>
</g>
<!-- ApplicationController&#45;&gt;UsersController -->
<g id="edge2" class="edge"><title>ApplicationController&#45;&gt;UsersController</title>
<path fill="none" stroke="black" d="M368.29,-626.547C421.459,-647.361 496.138,-679.715 556.274,-717.746 592.786,-740.836 629.866,-771.936 658.469,-797.945"/>
</g>
<!-- ApplicationController&#45;&gt;ErrorsController -->
<g id="edge3" class="edge"><title>ApplicationController&#45;&gt;ErrorsController</title>
<path fill="none" stroke="black" d="M335.881,-547.524C349.013,-524.534 362.29,-496.818 368.927,-469.722 392.128,-375.012 382.962,-346.818 368.927,-250.322 363.387,-212.235 350.681,-170.543 339.907,-139.639"/>
</g>
<!-- ApplicationController&#45;&gt;UserHabilitiesController -->
<g id="edge4" class="edge"><title>ApplicationController&#45;&gt;UserHabilitiesController</title>
<path fill="none" stroke="black" d="M258.504,-655.675C241.724,-679.386 223.304,-708.166 210.3,-736.192 172.625,-817.385 145.567,-915.376 128.626,-988.462"/>
</g>
<!-- ApplicationController&#45;&gt;AdminsController -->
<g id="edge5" class="edge"><title>ApplicationController&#45;&gt;AdminsController</title>
<path fill="none" stroke="black" d="M363.713,-655.715C388.375,-676.692 416.347,-700.484 440.122,-720.706"/>
</g>
<!-- ApplicationController&#45;&gt;SubcategoriesController -->
<g id="edge6" class="edge"><title>ApplicationController&#45;&gt;SubcategoriesController</title>
<path fill="none" stroke="black" d="M297.35,-655.863C296.075,-680.457 294.521,-710.438 293.028,-739.251"/>
</g>
<!-- ApplicationController&#45;&gt;HomeController -->
<g id="edge7" class="edge"><title>ApplicationController&#45;&gt;HomeController</title>
<path fill="none" stroke="black" d="M271.998,-547.598C259.716,-523.796 245.246,-495.45 232.527,-469.722 185.362,-374.317 132.635,-262.606 100.969,-194.939"/>
</g>
<!-- ApplicationController&#45;&gt;SessionsController -->
<g id="edge8" class="edge"><title>ApplicationController&#45;&gt;SessionsController</title>
<path fill="none" stroke="black" d="M368.381,-599.515C427.072,-594.919 512.078,-581.487 575.651,-543.236 603.381,-526.551 628.189,-502.355 648.934,-477.527"/>
</g>
<!-- ApplicationController&#45;&gt;PermissionsController -->
<g id="edge9" class="edge"><title>ApplicationController&#45;&gt;PermissionsController</title>
<path fill="none" stroke="black" d="M238.075,-547.551C207.401,-520.817 170.291,-488.474 138.718,-460.956"/>
</g>
<!-- ApplicationController&#45;&gt;HabilitiesController -->
<g id="edge10" class="edge"><title>ApplicationController&#45;&gt;HabilitiesController</title>
<path fill="none" stroke="black" d="M328.515,-547.462C340.953,-523.635 355.703,-495.308 368.927,-469.722 395.186,-418.918 424.151,-362.456 448.4,-315.066"/>
</g>
<!-- ApplicationController&#45;&gt;CategoriesController -->
<g id="edge11" class="edge"><title>ApplicationController&#45;&gt;CategoriesController</title>
<path fill="none" stroke="black" d="M300.287,-547.432C300.343,-523.499 300.412,-494.496 300.477,-466.53"/>
</g>
<!-- IdeasController -->
<g id="node14" class="node"><title>IdeasController</title>
<path fill="none" stroke="black" d="M676.522,-507.554C676.522,-507.554 753.522,-507.554 753.522,-507.554 759.522,-507.554 765.522,-513.554 765.522,-519.554 765.522,-519.554 765.522,-708.554 765.522,-708.554 765.522,-714.554 759.522,-720.554 753.522,-720.554 753.522,-720.554 676.522,-720.554 676.522,-720.554 670.522,-720.554 664.522,-714.554 664.522,-708.554 664.522,-708.554 664.522,-519.554 664.522,-519.554 664.522,-513.554 670.522,-507.554 676.522,-507.554"/>
<text text-anchor="middle" x="715.022" y="-705.354" font-family="Times,serif" font-size="14.00">IdeasController</text>
<polyline fill="none" stroke="black" points="664.522,-697.554 765.522,-697.554 "/>
<text text-anchor="start" x="672.522" y="-682.354" font-family="Times,serif" font-size="14.00">create</text>
<text text-anchor="start" x="672.522" y="-667.354" font-family="Times,serif" font-size="14.00">destroy</text>
<text text-anchor="start" x="672.522" y="-652.354" font-family="Times,serif" font-size="14.00">edit</text>
<text text-anchor="start" x="672.522" y="-637.354" font-family="Times,serif" font-size="14.00">index</text>
<text text-anchor="start" x="672.522" y="-622.354" font-family="Times,serif" font-size="14.00">new</text>
<text text-anchor="start" x="672.522" y="-607.354" font-family="Times,serif" font-size="14.00">show</text>
<text text-anchor="start" x="672.522" y="-592.354" font-family="Times,serif" font-size="14.00">update</text>
<polyline fill="none" stroke="black" points="664.522,-584.554 765.522,-584.554 "/>
<polyline fill="none" stroke="black" points="664.522,-560.554 765.522,-560.554 "/>
<text text-anchor="start" x="672.522" y="-545.354" font-family="Times,serif" font-size="14.00">_layout</text>
<text text-anchor="start" x="672.522" y="-530.354" font-family="Times,serif" font-size="14.00">idea_params</text>
<text text-anchor="start" x="672.522" y="-515.354" font-family="Times,serif" font-size="14.00">set_idea</text>
</g>
<!-- ApplicationController&#45;&gt;IdeasController -->
<g id="edge12" class="edge"><title>ApplicationController&#45;&gt;IdeasController</title>
<path fill="none" stroke="black" d="M368.202,-603.693C451.301,-606.176 589.95,-610.318 664.28,-612.538"/>
</g>
<!-- Api::V1::BaseController -->
<g id="node16" class="node"><title>Api::V1::BaseController</title>
<path fill="none" stroke="black" d="M327.796,-1016.29C327.796,-1016.29 491.796,-1016.29 491.796,-1016.29 497.796,-1016.29 503.796,-1022.29 503.796,-1028.29 503.796,-1028.29 503.796,-1127.29 503.796,-1127.29 503.796,-1133.29 497.796,-1139.29 491.796,-1139.29 491.796,-1139.29 327.796,-1139.29 327.796,-1139.29 321.796,-1139.29 315.796,-1133.29 315.796,-1127.29 315.796,-1127.29 315.796,-1028.29 315.796,-1028.29 315.796,-1022.29 321.796,-1016.29 327.796,-1016.29"/>
<text text-anchor="middle" x="409.796" y="-1124.09" font-family="Times,serif" font-size="14.00">Api::V1::BaseController</text>
<polyline fill="none" stroke="black" points="315.796,-1116.29 503.796,-1116.29 "/>
<text text-anchor="start" x="323.796" y="-1101.09" font-family="Times,serif" font-size="14.00">render_error_message</text>
<text text-anchor="start" x="323.796" y="-1086.09" font-family="Times,serif" font-size="14.00">render_need_param_error_msg</text>
<text text-anchor="start" x="323.796" y="-1071.09" font-family="Times,serif" font-size="14.00">restrict_access</text>
<polyline fill="none" stroke="black" points="315.796,-1063.29 503.796,-1063.29 "/>
<polyline fill="none" stroke="black" points="315.796,-1039.29 503.796,-1039.29 "/>
<text text-anchor="start" x="323.796" y="-1024.09" font-family="Times,serif" font-size="14.00">_layout</text>
</g>
<!-- ApplicationController&#45;&gt;Api::V1::BaseController -->
<g id="edge14" class="edge"><title>ApplicationController&#45;&gt;Api::V1::BaseController</title>
<path fill="none" stroke="black" d="M330.926,-655.723C343.274,-679.68 356.497,-708.632 364.7,-736.192 393.026,-831.367 403.579,-946.744 407.497,-1016.1"/>
</g>
<!-- LandingPageController -->
<g id="node17" class="node"><title>LandingPageController</title>
<path fill="none" stroke="black" d="M441.451,-446.036C441.451,-446.036 560.451,-446.036 560.451,-446.036 566.451,-446.036 572.451,-452.036 572.451,-458.036 572.451,-458.036 572.451,-528.036 572.451,-528.036 572.451,-534.036 566.451,-540.036 560.451,-540.036 560.451,-540.036 441.451,-540.036 441.451,-540.036 435.451,-540.036 429.451,-534.036 429.451,-528.036 429.451,-528.036 429.451,-458.036 429.451,-458.036 429.451,-452.036 435.451,-446.036 441.451,-446.036"/>
<text text-anchor="middle" x="500.951" y="-524.836" font-family="Times,serif" font-size="14.00">LandingPageController</text>
<polyline fill="none" stroke="black" points="429.451,-517.036 572.451,-517.036 "/>
<polyline fill="none" stroke="black" points="429.451,-493.036 572.451,-493.036 "/>
<polyline fill="none" stroke="black" points="429.451,-469.036 572.451,-469.036 "/>
<text text-anchor="start" x="437.451" y="-453.836" font-family="Times,serif" font-size="14.00">_layout</text>
</g>
<!-- ApplicationController&#45;&gt;LandingPageController -->
<g id="edge15" class="edge"><title>ApplicationController&#45;&gt;LandingPageController</title>
<path fill="none" stroke="black" d="M368.419,-564.734C387.974,-554.155 409.347,-542.592 429.11,-531.901"/>
</g>
<!-- PostulationsController -->
<g id="node18" class="node"><title>PostulationsController</title>
<path fill="none" stroke="black" d="M645.664,-0.5C645.664,-0.5 759.664,-0.5 759.664,-0.5 765.664,-0.5 771.664,-6.5 771.664,-12.5 771.664,-12.5 771.664,-201.5 771.664,-201.5 771.664,-207.5 765.664,-213.5 759.664,-213.5 759.664,-213.5 645.664,-213.5 645.664,-213.5 639.664,-213.5 633.664,-207.5 633.664,-201.5 633.664,-201.5 633.664,-12.5 633.664,-12.5 633.664,-6.5 639.664,-0.5 645.664,-0.5"/>
<text text-anchor="middle" x="702.664" y="-198.3" font-family="Times,serif" font-size="14.00">PostulationsController</text>
<polyline fill="none" stroke="black" points="633.664,-190.5 771.664,-190.5 "/>
<text text-anchor="start" x="641.664" y="-175.3" font-family="Times,serif" font-size="14.00">create</text>
<text text-anchor="start" x="641.664" y="-160.3" font-family="Times,serif" font-size="14.00">destroy</text>
<text text-anchor="start" x="641.664" y="-145.3" font-family="Times,serif" font-size="14.00">edit</text>
<text text-anchor="start" x="641.664" y="-130.3" font-family="Times,serif" font-size="14.00">index</text>
<text text-anchor="start" x="641.664" y="-115.3" font-family="Times,serif" font-size="14.00">new</text>
<text text-anchor="start" x="641.664" y="-100.3" font-family="Times,serif" font-size="14.00">show</text>
<text text-anchor="start" x="641.664" y="-85.3" font-family="Times,serif" font-size="14.00">update</text>
<polyline fill="none" stroke="black" points="633.664,-77.5 771.664,-77.5 "/>
<polyline fill="none" stroke="black" points="633.664,-53.5 771.664,-53.5 "/>
<text text-anchor="start" x="641.664" y="-38.3" font-family="Times,serif" font-size="14.00">_layout</text>
<text text-anchor="start" x="641.664" y="-23.3" font-family="Times,serif" font-size="14.00">postulation_params</text>
<text text-anchor="start" x="641.664" y="-8.3" font-family="Times,serif" font-size="14.00">set_postulation</text>
</g>
<!-- ApplicationController&#45;&gt;PostulationsController -->
<g id="edge16" class="edge"><title>ApplicationController&#45;&gt;PostulationsController</title>
<path fill="none" stroke="black" d="M339.336,-547.456C363.149,-515.789 394.922,-475.717 426.251,-442.836 484.217,-382 513.788,-382.062 568.476,-318.265 595.766,-286.43 621.549,-248.576 643.083,-213.765"/>
</g>
<!-- MaturesController -->
<g id="node19" class="node"><title>MaturesController</title>
<path fill="none" stroke="black" d="M12,-743.146C12,-743.146 105,-743.146 105,-743.146 111,-743.146 117,-749.146 117,-755.146 117,-755.146 117,-944.146 117,-944.146 117,-950.146 111,-956.146 105,-956.146 105,-956.146 12,-956.146 12,-956.146 6,-956.146 0,-950.146 0,-944.146 0,-944.146 0,-755.146 0,-755.146 0,-749.146 6,-743.146 12,-743.146"/>
<text text-anchor="middle" x="58.5" y="-940.946" font-family="Times,serif" font-size="14.00">MaturesController</text>
<polyline fill="none" stroke="black" points="0,-933.146 117,-933.146 "/>
<text text-anchor="start" x="8" y="-917.946" font-family="Times,serif" font-size="14.00">create</text>
<text text-anchor="start" x="8" y="-902.946" font-family="Times,serif" font-size="14.00">destroy</text>
<text text-anchor="start" x="8" y="-887.946" font-family="Times,serif" font-size="14.00">edit</text>
<text text-anchor="start" x="8" y="-872.946" font-family="Times,serif" font-size="14.00">index</text>
<text text-anchor="start" x="8" y="-857.946" font-family="Times,serif" font-size="14.00">new</text>
<text text-anchor="start" x="8" y="-842.946" font-family="Times,serif" font-size="14.00">show</text>
<text text-anchor="start" x="8" y="-827.946" font-family="Times,serif" font-size="14.00">update</text>
<polyline fill="none" stroke="black" points="0,-820.146 117,-820.146 "/>
<polyline fill="none" stroke="black" points="0,-796.146 117,-796.146 "/>
<text text-anchor="start" x="8" y="-780.946" font-family="Times,serif" font-size="14.00">_layout</text>
<text text-anchor="start" x="8" y="-765.946" font-family="Times,serif" font-size="14.00">mature_params</text>
<text text-anchor="start" x="8" y="-750.946" font-family="Times,serif" font-size="14.00">set_mature</text>
</g>
<!-- ApplicationController&#45;&gt;MaturesController -->
<g id="edge17" class="edge"><title>ApplicationController&#45;&gt;MaturesController</title>
<path fill="none" stroke="black" d="M247.425,-655.776C208.956,-695.252 156.814,-748.759 117.053,-789.56"/>
</g>
<!-- Api::V1::UsersController -->
<g id="node15" class="node"><title>Api::V1::UsersController</title>
<path fill="none" stroke="black" d="M622.834,-1021.92C622.834,-1021.92 753.834,-1021.92 753.834,-1021.92 759.834,-1021.92 765.834,-1027.92 765.834,-1033.92 765.834,-1033.92 765.834,-1147.92 765.834,-1147.92 765.834,-1153.92 759.834,-1159.92 753.834,-1159.92 753.834,-1159.92 622.834,-1159.92 622.834,-1159.92 616.834,-1159.92 610.834,-1153.92 610.834,-1147.92 610.834,-1147.92 610.834,-1033.92 610.834,-1033.92 610.834,-1027.92 616.834,-1021.92 622.834,-1021.92"/>
<text text-anchor="middle" x="688.334" y="-1144.72" font-family="Times,serif" font-size="14.00">Api::V1::UsersController</text>
<polyline fill="none" stroke="black" points="610.834,-1136.92 765.834,-1136.92 "/>
<text text-anchor="start" x="618.834" y="-1121.72" font-family="Times,serif" font-size="14.00">create</text>
<text text-anchor="start" x="618.834" y="-1106.72" font-family="Times,serif" font-size="14.00">index</text>
<text text-anchor="start" x="618.834" y="-1091.72" font-family="Times,serif" font-size="14.00">show</text>
<text text-anchor="start" x="618.834" y="-1076.72" font-family="Times,serif" font-size="14.00">user_params</text>
<polyline fill="none" stroke="black" points="610.834,-1068.92 765.834,-1068.92 "/>
<polyline fill="none" stroke="black" points="610.834,-1044.92 765.834,-1044.92 "/>
<text text-anchor="start" x="618.834" y="-1029.72" font-family="Times,serif" font-size="14.00">_layout</text>
</g>
<!-- Api::V1::BaseController&#45;&gt;Api::V1::UsersController -->
<g id="edge13" class="edge"><title>Api::V1::BaseController&#45;&gt;Api::V1::UsersController</title>
<path fill="none" stroke="black" d="M504.096,-1082.24C538.818,-1083.87 577.717,-1085.71 610.792,-1087.27"/>
</g>
</g>
</svg>
