<?xml version="1.0" encoding="UTF-8" standalone="no"?>
<!DOCTYPE svg PUBLIC "-//W3C//DTD SVG 1.1//EN"
 "http://www.w3.org/Graphics/SVG/1.1/DTD/svg11.dtd">
<!-- Generated by graphviz version 2.36.0 (20140111.2315)
 -->
<!-- Title: controllers_diagram Pages: 1 -->
<svg width="1184pt" height="1020pt"
 viewBox="0.00 0.00 1184.00 1019.61" xmlns="http://www.w3.org/2000/svg" xmlns:xlink="http://www.w3.org/1999/xlink">
<g id="graph0" class="graph" transform="scale(1 1) rotate(0) translate(4 1015.61)">
<title>controllers_diagram</title>
<polygon fill="white" stroke="none" points="-4,4 -4,-1015.61 1180,-1015.61 1180,4 -4,4"/>
<!-- _diagram_info -->
<g id="node1" class="node"><title>_diagram_info</title>
<text text-anchor="start" x="970" y="-63.6" font-family="Times,serif" font-size="13.00">Controllers diagram</text>
<text text-anchor="start" x="970" y="-49.6" font-family="Times,serif" font-size="13.00">Date: Oct 15 2015 &#45; 01:06</text>
<text text-anchor="start" x="970" y="-35.6" font-family="Times,serif" font-size="13.00">Migration version: 20151015034432</text>
<text text-anchor="start" x="970" y="-21.6" font-family="Times,serif" font-size="13.00">Generated by RailRoady 1.1.1</text>
<text text-anchor="start" x="970" y="-7.6" font-family="Times,serif" font-size="13.00">http://railroady.prestonlee.com</text>
</g>
<!-- RolesController -->
<g id="node2" class="node"><title>RolesController</title>
<path fill="none" stroke="black" d="M12.8271,-493.194C12.8271,-493.194 91.8271,-493.194 91.8271,-493.194 97.8271,-493.194 103.827,-499.194 103.827,-505.194 103.827,-505.194 103.827,-694.194 103.827,-694.194 103.827,-700.194 97.8271,-706.194 91.8271,-706.194 91.8271,-706.194 12.8271,-706.194 12.8271,-706.194 6.82708,-706.194 0.827077,-700.194 0.827077,-694.194 0.827077,-694.194 0.827077,-505.194 0.827077,-505.194 0.827077,-499.194 6.82708,-493.194 12.8271,-493.194"/>
<text text-anchor="middle" x="52.3271" y="-690.994" font-family="Times,serif" font-size="14.00">RolesController</text>
<polyline fill="none" stroke="black" points="0.827077,-683.194 103.827,-683.194 "/>
<text text-anchor="start" x="8.82708" y="-667.994" font-family="Times,serif" font-size="14.00">create</text>
<text text-anchor="start" x="8.82708" y="-652.994" font-family="Times,serif" font-size="14.00">destroy</text>
<text text-anchor="start" x="8.82708" y="-637.994" font-family="Times,serif" font-size="14.00">edit</text>
<text text-anchor="start" x="8.82708" y="-622.994" font-family="Times,serif" font-size="14.00">index</text>
<text text-anchor="start" x="8.82708" y="-607.994" font-family="Times,serif" font-size="14.00">new</text>
<text text-anchor="start" x="8.82708" y="-592.994" font-family="Times,serif" font-size="14.00">show</text>
<text text-anchor="start" x="8.82708" y="-577.994" font-family="Times,serif" font-size="14.00">update</text>
<polyline fill="none" stroke="black" points="0.827077,-570.194 103.827,-570.194 "/>
<polyline fill="none" stroke="black" points="0.827077,-546.194 103.827,-546.194 "/>
<text text-anchor="start" x="8.82708" y="-530.994" font-family="Times,serif" font-size="14.00">_layout</text>
<text text-anchor="start" x="8.82708" y="-515.994" font-family="Times,serif" font-size="14.00">role_params</text>
<text text-anchor="start" x="8.82708" y="-500.994" font-family="Times,serif" font-size="14.00">set_role</text>
</g>
<!-- UsersController -->
<g id="node3" class="node"><title>UsersController</title>
<path fill="none" stroke="black" d="M770.031,-400.393C770.031,-400.393 849.031,-400.393 849.031,-400.393 855.031,-400.393 861.031,-406.393 861.031,-412.393 861.031,-412.393 861.031,-616.393 861.031,-616.393 861.031,-622.393 855.031,-628.393 849.031,-628.393 849.031,-628.393 770.031,-628.393 770.031,-628.393 764.031,-628.393 758.031,-622.393 758.031,-616.393 758.031,-616.393 758.031,-412.393 758.031,-412.393 758.031,-406.393 764.031,-400.393 770.031,-400.393"/>
<text text-anchor="middle" x="809.531" y="-613.193" font-family="Times,serif" font-size="14.00">UsersController</text>
<polyline fill="none" stroke="black" points="758.031,-605.393 861.031,-605.393 "/>
<text text-anchor="start" x="766.031" y="-590.193" font-family="Times,serif" font-size="14.00">activate</text>
<text text-anchor="start" x="766.031" y="-575.193" font-family="Times,serif" font-size="14.00">create</text>
<text text-anchor="start" x="766.031" y="-560.193" font-family="Times,serif" font-size="14.00">destroy</text>
<text text-anchor="start" x="766.031" y="-545.193" font-family="Times,serif" font-size="14.00">edit</text>
<text text-anchor="start" x="766.031" y="-530.193" font-family="Times,serif" font-size="14.00">index</text>
<text text-anchor="start" x="766.031" y="-515.193" font-family="Times,serif" font-size="14.00">new</text>
<text text-anchor="start" x="766.031" y="-500.193" font-family="Times,serif" font-size="14.00">show</text>
<text text-anchor="start" x="766.031" y="-485.193" font-family="Times,serif" font-size="14.00">update</text>
<polyline fill="none" stroke="black" points="758.031,-477.393 861.031,-477.393 "/>
<polyline fill="none" stroke="black" points="758.031,-453.393 861.031,-453.393 "/>
<text text-anchor="start" x="766.031" y="-438.193" font-family="Times,serif" font-size="14.00">_layout</text>
<text text-anchor="start" x="766.031" y="-423.193" font-family="Times,serif" font-size="14.00">set_user</text>
<text text-anchor="start" x="766.031" y="-408.193" font-family="Times,serif" font-size="14.00">user_params</text>
</g>
<!-- ErrorsController -->
<g id="node4" class="node"><title>ErrorsController</title>
<path fill="none" stroke="black" d="M391.754,-44.1603C391.754,-44.1603 473.754,-44.1603 473.754,-44.1603 479.754,-44.1603 485.754,-50.1603 485.754,-56.1603 485.754,-56.1603 485.754,-125.16 485.754,-125.16 485.754,-131.16 479.754,-137.16 473.754,-137.16 473.754,-137.16 391.754,-137.16 391.754,-137.16 385.754,-137.16 379.754,-131.16 379.754,-125.16 379.754,-125.16 379.754,-56.1603 379.754,-56.1603 379.754,-50.1603 385.754,-44.1603 391.754,-44.1603"/>
<text text-anchor="middle" x="432.754" y="-121.96" font-family="Times,serif" font-size="14.00">ErrorsController</text>
<polyline fill="none" stroke="black" points="379.754,-114.16 485.754,-114.16 "/>
<text text-anchor="start" x="387.754" y="-98.9603" font-family="Times,serif" font-size="14.00">handle404</text>
<polyline fill="none" stroke="black" points="379.754,-91.1603 485.754,-91.1603 "/>
<polyline fill="none" stroke="black" points="379.754,-67.1603 485.754,-67.1603 "/>
<text text-anchor="start" x="387.754" y="-51.9603" font-family="Times,serif" font-size="14.00">_layout</text>
</g>
<!-- AdminsController -->
<g id="node5" class="node"><title>AdminsController</title>
<path fill="none" stroke="black" d="M408.451,-864.737C408.451,-864.737 500.451,-864.737 500.451,-864.737 506.451,-864.737 512.451,-870.737 512.451,-876.737 512.451,-876.737 512.451,-945.737 512.451,-945.737 512.451,-951.737 506.451,-957.737 500.451,-957.737 500.451,-957.737 408.451,-957.737 408.451,-957.737 402.451,-957.737 396.451,-951.737 396.451,-945.737 396.451,-945.737 396.451,-876.737 396.451,-876.737 396.451,-870.737 402.451,-864.737 408.451,-864.737"/>
<text text-anchor="middle" x="454.451" y="-942.537" font-family="Times,serif" font-size="14.00">AdminsController</text>
<polyline fill="none" stroke="black" points="396.451,-934.737 512.451,-934.737 "/>
<text text-anchor="start" x="404.451" y="-919.537" font-family="Times,serif" font-size="14.00">dashboard</text>
<polyline fill="none" stroke="black" points="396.451,-911.737 512.451,-911.737 "/>
<polyline fill="none" stroke="black" points="396.451,-887.737 512.451,-887.737 "/>
<text text-anchor="start" x="404.451" y="-872.537" font-family="Times,serif" font-size="14.00">_layout</text>
</g>
<!-- HomeController -->
<g id="node6" class="node"><title>HomeController</title>
<path fill="none" stroke="black" d="M757.123,-811.009C757.123,-811.009 839.123,-811.009 839.123,-811.009 845.123,-811.009 851.123,-817.009 851.123,-823.009 851.123,-823.009 851.123,-922.009 851.123,-922.009 851.123,-928.009 845.123,-934.009 839.123,-934.009 839.123,-934.009 757.123,-934.009 757.123,-934.009 751.123,-934.009 745.123,-928.009 745.123,-922.009 745.123,-922.009 745.123,-823.009 745.123,-823.009 745.123,-817.009 751.123,-811.009 757.123,-811.009"/>
<text text-anchor="middle" x="798.123" y="-918.809" font-family="Times,serif" font-size="14.00">HomeController</text>
<polyline fill="none" stroke="black" points="745.123,-911.009 851.123,-911.009 "/>
<text text-anchor="start" x="753.123" y="-895.809" font-family="Times,serif" font-size="14.00">contact</text>
<text text-anchor="start" x="753.123" y="-880.809" font-family="Times,serif" font-size="14.00">index</text>
<text text-anchor="start" x="753.123" y="-865.809" font-family="Times,serif" font-size="14.00">send_contact</text>
<polyline fill="none" stroke="black" points="745.123,-858.009 851.123,-858.009 "/>
<polyline fill="none" stroke="black" points="745.123,-834.009 851.123,-834.009 "/>
<text text-anchor="start" x="753.123" y="-818.809" font-family="Times,serif" font-size="14.00">_layout</text>
</g>
<!-- SessionsController -->
<g id="node7" class="node"><title>SessionsController</title>
<path fill="none" stroke="black" d="M40.0628,-798.105C40.0628,-798.105 149.063,-798.105 149.063,-798.105 155.063,-798.105 161.063,-804.105 161.063,-810.105 161.063,-810.105 161.063,-999.105 161.063,-999.105 161.063,-1005.11 155.063,-1011.11 149.063,-1011.11 149.063,-1011.11 40.0628,-1011.11 40.0628,-1011.11 34.0628,-1011.11 28.0628,-1005.11 28.0628,-999.105 28.0628,-999.105 28.0628,-810.105 28.0628,-810.105 28.0628,-804.105 34.0628,-798.105 40.0628,-798.105"/>
<text text-anchor="middle" x="94.5628" y="-995.905" font-family="Times,serif" font-size="14.00">SessionsController</text>
<polyline fill="none" stroke="black" points="28.0628,-988.105 161.063,-988.105 "/>
<text text-anchor="start" x="36.0628" y="-972.905" font-family="Times,serif" font-size="14.00">change_password</text>
<text text-anchor="start" x="36.0628" y="-957.905" font-family="Times,serif" font-size="14.00">create</text>
<text text-anchor="start" x="36.0628" y="-942.905" font-family="Times,serif" font-size="14.00">create_with_oauth</text>
<text text-anchor="start" x="36.0628" y="-927.905" font-family="Times,serif" font-size="14.00">destroy</text>
<text text-anchor="start" x="36.0628" y="-912.905" font-family="Times,serif" font-size="14.00">do_change_password</text>
<text text-anchor="start" x="36.0628" y="-897.905" font-family="Times,serif" font-size="14.00">new</text>
<text text-anchor="start" x="36.0628" y="-882.905" font-family="Times,serif" font-size="14.00">recover_pass</text>
<text text-anchor="start" x="36.0628" y="-867.905" font-family="Times,serif" font-size="14.00">send_pass_recovery</text>
<text text-anchor="start" x="36.0628" y="-852.905" font-family="Times,serif" font-size="14.00">unsubscribe</text>
<polyline fill="none" stroke="black" points="28.0628,-845.105 161.063,-845.105 "/>
<polyline fill="none" stroke="black" points="28.0628,-821.105 161.063,-821.105 "/>
<text text-anchor="start" x="36.0628" y="-805.905" font-family="Times,serif" font-size="14.00">_layout</text>
</g>
<!-- PermissionsController -->
<g id="node8" class="node"><title>PermissionsController</title>
<path fill="none" stroke="black" d="M12,-0.5C12,-0.5 126,-0.5 126,-0.5 132,-0.5 138,-6.5 138,-12.5 138,-12.5 138,-201.5 138,-201.5 138,-207.5 132,-213.5 126,-213.5 126,-213.5 12,-213.5 12,-213.5 6,-213.5 0,-207.5 0,-201.5 0,-201.5 0,-12.5 0,-12.5 0,-6.5 6,-0.5 12,-0.5"/>
<text text-anchor="middle" x="69" y="-198.3" font-family="Times,serif" font-size="14.00">PermissionsController</text>
<polyline fill="none" stroke="black" points="0,-190.5 138,-190.5 "/>
<text text-anchor="start" x="8" y="-175.3" font-family="Times,serif" font-size="14.00">create</text>
<text text-anchor="start" x="8" y="-160.3" font-family="Times,serif" font-size="14.00">destroy</text>
<text text-anchor="start" x="8" y="-145.3" font-family="Times,serif" font-size="14.00">edit</text>
<text text-anchor="start" x="8" y="-130.3" font-family="Times,serif" font-size="14.00">index</text>
<text text-anchor="start" x="8" y="-115.3" font-family="Times,serif" font-size="14.00">new</text>
<text text-anchor="start" x="8" y="-100.3" font-family="Times,serif" font-size="14.00">show</text>
<text text-anchor="start" x="8" y="-85.3" font-family="Times,serif" font-size="14.00">update</text>
<polyline fill="none" stroke="black" points="0,-77.5 138,-77.5 "/>
<polyline fill="none" stroke="black" points="0,-53.5 138,-53.5 "/>
<text text-anchor="start" x="8" y="-38.3" font-family="Times,serif" font-size="14.00">_layout</text>
<text text-anchor="start" x="8" y="-23.3" font-family="Times,serif" font-size="14.00">permission_params</text>
<text text-anchor="start" x="8" y="-8.3" font-family="Times,serif" font-size="14.00">set_permission</text>
</g>
<!-- ApplicationController -->
<g id="node9" class="node"><title>ApplicationController</title>
<path fill="none" stroke="black" d="M369.094,-566.685C369.094,-566.685 481.094,-566.685 481.094,-566.685 487.094,-566.685 493.094,-572.685 493.094,-578.685 493.094,-578.685 493.094,-662.685 493.094,-662.685 493.094,-668.685 487.094,-674.685 481.094,-674.685 481.094,-674.685 369.094,-674.685 369.094,-674.685 363.094,-674.685 357.094,-668.685 357.094,-662.685 357.094,-662.685 357.094,-578.685 357.094,-578.685 357.094,-572.685 363.094,-566.685 369.094,-566.685"/>
<text text-anchor="middle" x="425.094" y="-659.485" font-family="Times,serif" font-size="14.00">ApplicationController</text>
<polyline fill="none" stroke="black" points="357.094,-651.685 493.094,-651.685 "/>
<text text-anchor="start" x="365.094" y="-636.485" font-family="Times,serif" font-size="14.00">set_locale</text>
<polyline fill="none" stroke="black" points="357.094,-628.685 493.094,-628.685 "/>
<polyline fill="none" stroke="black" points="357.094,-604.685 493.094,-604.685 "/>
<text text-anchor="start" x="365.094" y="-589.485" font-family="Times,serif" font-size="14.00">_layout</text>
<text text-anchor="start" x="365.094" y="-574.485" font-family="Times,serif" font-size="14.00">current_user</text>
</g>
<!-- ApplicationController&#45;&gt;RolesController -->
<g id="edge1" class="edge"><title>ApplicationController&#45;&gt;RolesController</title>
<path fill="none" stroke="black" d="M356.723,-616.835C283.789,-612.728 169.898,-606.314 104.067,-602.607"/>
</g>
<!-- ApplicationController&#45;&gt;UsersController -->
<g id="edge2" class="edge"><title>ApplicationController&#45;&gt;UsersController</title>
<path fill="none" stroke="black" d="M493.381,-601.804C569.114,-580.865 689.592,-547.554 757.873,-528.675"/>
</g>
<!-- ApplicationController&#45;&gt;ErrorsController -->
<g id="edge3" class="edge"><title>ApplicationController&#45;&gt;ErrorsController</title>
<path fill="none" stroke="black" d="M422.166,-566.458C420.375,-530.516 418.258,-482.311 417.347,-439.708 416.116,-382.211 415.333,-367.784 417.347,-310.308 419.441,-250.52 424.733,-181.745 428.53,-137.315"/>
</g>
<!-- ApplicationController&#45;&gt;AdminsController -->
<g id="edge4" class="edge"><title>ApplicationController&#45;&gt;AdminsController</title>
<path fill="none" stroke="black" d="M430.582,-674.994C436.091,-729.526 444.492,-812.67 449.718,-864.391"/>
</g>
<!-- ApplicationController&#45;&gt;HomeController -->
<g id="edge5" class="edge"><title>ApplicationController&#45;&gt;HomeController</title>
<path fill="none" stroke="black" d="M493.513,-666.873C565.973,-715.789 678.829,-791.976 744.915,-836.59"/>
</g>
<!-- ApplicationController&#45;&gt;SessionsController -->
<g id="edge6" class="edge"><title>ApplicationController&#45;&gt;SessionsController</title>
<path fill="none" stroke="black" d="M362.146,-674.756C304.643,-724.15 219.894,-796.948 161.247,-847.324"/>
</g>
<!-- ApplicationController&#45;&gt;PermissionsController -->
<g id="edge7" class="edge"><title>ApplicationController&#45;&gt;PermissionsController</title>
<path fill="none" stroke="black" d="M396.702,-566.38C358.439,-494.986 286.48,-366.812 211.95,-266.015 189.659,-235.868 162.706,-204.757 138.24,-178.136"/>
</g>
<!-- IdeasController -->
<g id="node10" class="node"><title>IdeasController</title>
<path fill="none" stroke="black" d="M119.75,-269.215C119.75,-269.215 196.75,-269.215 196.75,-269.215 202.75,-269.215 208.75,-275.215 208.75,-281.215 208.75,-281.215 208.75,-470.215 208.75,-470.215 208.75,-476.215 202.75,-482.215 196.75,-482.215 196.75,-482.215 119.75,-482.215 119.75,-482.215 113.75,-482.215 107.75,-476.215 107.75,-470.215 107.75,-470.215 107.75,-281.215 107.75,-281.215 107.75,-275.215 113.75,-269.215 119.75,-269.215"/>
<text text-anchor="middle" x="158.25" y="-467.015" font-family="Times,serif" font-size="14.00">IdeasController</text>
<polyline fill="none" stroke="black" points="107.75,-459.215 208.75,-459.215 "/>
<text text-anchor="start" x="115.75" y="-444.015" font-family="Times,serif" font-size="14.00">create</text>
<text text-anchor="start" x="115.75" y="-429.015" font-family="Times,serif" font-size="14.00">destroy</text>
<text text-anchor="start" x="115.75" y="-414.015" font-family="Times,serif" font-size="14.00">edit</text>
<text text-anchor="start" x="115.75" y="-399.015" font-family="Times,serif" font-size="14.00">index</text>
<text text-anchor="start" x="115.75" y="-384.015" font-family="Times,serif" font-size="14.00">new</text>
<text text-anchor="start" x="115.75" y="-369.015" font-family="Times,serif" font-size="14.00">show</text>
<text text-anchor="start" x="115.75" y="-354.015" font-family="Times,serif" font-size="14.00">update</text>
<polyline fill="none" stroke="black" points="107.75,-346.215 208.75,-346.215 "/>
<polyline fill="none" stroke="black" points="107.75,-322.215 208.75,-322.215 "/>
<text text-anchor="start" x="115.75" y="-307.015" font-family="Times,serif" font-size="14.00">_layout</text>
<text text-anchor="start" x="115.75" y="-292.015" font-family="Times,serif" font-size="14.00">idea_params</text>
<text text-anchor="start" x="115.75" y="-277.015" font-family="Times,serif" font-size="14.00">set_idea</text>
</g>
<!-- ApplicationController&#45;&gt;IdeasController -->
<g id="edge8" class="edge"><title>ApplicationController&#45;&gt;IdeasController</title>
<path fill="none" stroke="black" d="M366.204,-566.622C319.085,-523.366 253.706,-463.346 208.906,-422.218"/>
</g>
<!-- Api::V1::BaseController -->
<g id="node12" class="node"><title>Api::V1::BaseController</title>
<path fill="none" stroke="black" d="M432.547,-313.508C432.547,-313.508 596.547,-313.508 596.547,-313.508 602.547,-313.508 608.547,-319.508 608.547,-325.508 608.547,-325.508 608.547,-424.508 608.547,-424.508 608.547,-430.508 602.547,-436.508 596.547,-436.508 596.547,-436.508 432.547,-436.508 432.547,-436.508 426.547,-436.508 420.547,-430.508 420.547,-424.508 420.547,-424.508 420.547,-325.508 420.547,-325.508 420.547,-319.508 426.547,-313.508 432.547,-313.508"/>
<text text-anchor="middle" x="514.547" y="-421.308" font-family="Times,serif" font-size="14.00">Api::V1::BaseController</text>
<polyline fill="none" stroke="black" points="420.547,-413.508 608.547,-413.508 "/>
<text text-anchor="start" x="428.547" y="-398.308" font-family="Times,serif" font-size="14.00">render_error_message</text>
<text text-anchor="start" x="428.547" y="-383.308" font-family="Times,serif" font-size="14.00">render_need_param_error_msg</text>
<text text-anchor="start" x="428.547" y="-368.308" font-family="Times,serif" font-size="14.00">restrict_access</text>
<polyline fill="none" stroke="black" points="420.547,-360.508 608.547,-360.508 "/>
<polyline fill="none" stroke="black" points="420.547,-336.508 608.547,-336.508 "/>
<text text-anchor="start" x="428.547" y="-321.308" font-family="Times,serif" font-size="14.00">_layout</text>
</g>
<!-- ApplicationController&#45;&gt;Api::V1::BaseController -->
<g id="edge10" class="edge"><title>ApplicationController&#45;&gt;Api::V1::BaseController</title>
<path fill="none" stroke="black" d="M444.836,-566.466C458.779,-528.172 477.492,-476.778 492.019,-436.88"/>
</g>
<!-- Api::V1::UsersController -->
<g id="node11" class="node"><title>Api::V1::UsersController</title>
<path fill="none" stroke="black" d="M734.89,-61.9059C734.89,-61.9059 865.89,-61.9059 865.89,-61.9059 871.89,-61.9059 877.89,-67.9059 877.89,-73.9059 877.89,-73.9059 877.89,-187.906 877.89,-187.906 877.89,-193.906 871.89,-199.906 865.89,-199.906 865.89,-199.906 734.89,-199.906 734.89,-199.906 728.89,-199.906 722.89,-193.906 722.89,-187.906 722.89,-187.906 722.89,-73.9059 722.89,-73.9059 722.89,-67.9059 728.89,-61.9059 734.89,-61.9059"/>
<text text-anchor="middle" x="800.39" y="-184.706" font-family="Times,serif" font-size="14.00">Api::V1::UsersController</text>
<polyline fill="none" stroke="black" points="722.89,-176.906 877.89,-176.906 "/>
<text text-anchor="start" x="730.89" y="-161.706" font-family="Times,serif" font-size="14.00">create</text>
<text text-anchor="start" x="730.89" y="-146.706" font-family="Times,serif" font-size="14.00">index</text>
<text text-anchor="start" x="730.89" y="-131.706" font-family="Times,serif" font-size="14.00">show</text>
<text text-anchor="start" x="730.89" y="-116.706" font-family="Times,serif" font-size="14.00">user_params</text>
<polyline fill="none" stroke="black" points="722.89,-108.906 877.89,-108.906 "/>
<polyline fill="none" stroke="black" points="722.89,-84.9059 877.89,-84.9059 "/>
<text text-anchor="start" x="730.89" y="-69.7059" font-family="Times,serif" font-size="14.00">_layout</text>
</g>
<!-- Api::V1::BaseController&#45;&gt;Api::V1::UsersController -->
<g id="edge9" class="edge"><title>Api::V1::BaseController&#45;&gt;Api::V1::UsersController</title>
<path fill="none" stroke="black" d="M586.677,-313.411C628.189,-277.961 680.362,-233.407 722.766,-197.195"/>
</g>
</g>
</svg>
