<?xml version="1.0" encoding="UTF-8" standalone="no"?>
<!DOCTYPE svg PUBLIC "-//W3C//DTD SVG 1.1//EN"
 "http://www.w3.org/Graphics/SVG/1.1/DTD/svg11.dtd">
<!-- Generated by graphviz version 2.36.0 (20140111.2315)
 -->
<!-- Title: models_diagram Pages: 1 -->
<svg width="1791pt" height="960pt"
 viewBox="0.00 0.00 1791.00 960.00" xmlns="http://www.w3.org/2000/svg" xmlns:xlink="http://www.w3.org/1999/xlink">
<g id="graph0" class="graph" transform="scale(1 1) rotate(0) translate(4 956)">
<title>models_diagram</title>
<polygon fill="white" stroke="none" points="-4,4 -4,-956 1787,-956 1787,4 -4,4"/>
<!-- _diagram_info -->
<g id="node1" class="node"><title>_diagram_info</title>
<text text-anchor="start" x="465" y="-937.6" font-family="Times,serif" font-size="13.00">Models diagram</text>
<text text-anchor="start" x="465" y="-923.6" font-family="Times,serif" font-size="13.00">Date: Oct 15 2015 &#45; 13:33</text>
<text text-anchor="start" x="465" y="-909.6" font-family="Times,serif" font-size="13.00">Migration version: 20151015043318</text>
<text text-anchor="start" x="465" y="-895.6" font-family="Times,serif" font-size="13.00">Generated by RailRoady 1.1.1</text>
<text text-anchor="start" x="465" y="-881.6" font-family="Times,serif" font-size="13.00">http://railroady.prestonlee.com</text>
</g>
<!-- Blacklist -->
<g id="node2" class="node"><title>Blacklist</title>
<path fill="none" stroke="black" d="M11.5,-603.5C11.5,-603.5 118.5,-603.5 118.5,-603.5 124.5,-603.5 130.5,-609.5 130.5,-615.5 130.5,-615.5 130.5,-712.5 130.5,-712.5 130.5,-718.5 124.5,-724.5 118.5,-724.5 118.5,-724.5 11.5,-724.5 11.5,-724.5 5.5,-724.5 -0.5,-718.5 -0.5,-712.5 -0.5,-712.5 -0.5,-615.5 -0.5,-615.5 -0.5,-609.5 5.5,-603.5 11.5,-603.5"/>
<text text-anchor="middle" x="65" y="-709.3" font-family="Times,serif" font-size="14.00">Blacklist</text>
<polyline fill="none" stroke="black" points="-0.5,-701.5 130.5,-701.5 "/>
<text text-anchor="start" x="7.5" y="-686.3" font-family="Times,serif" font-size="14.00">id :integer</text>
<text text-anchor="start" x="7.5" y="-671.3" font-family="Times,serif" font-size="14.00">email_to :string</text>
<text text-anchor="start" x="7.5" y="-656.3" font-family="Times,serif" font-size="14.00">email_from :string</text>
<text text-anchor="start" x="7.5" y="-641.3" font-family="Times,serif" font-size="14.00">global :boolean</text>
<text text-anchor="start" x="7.5" y="-626.3" font-family="Times,serif" font-size="14.00">created_at :datetime</text>
<text text-anchor="start" x="7.5" y="-611.3" font-family="Times,serif" font-size="14.00">updated_at :datetime</text>
</g>
<!-- Mature -->
<g id="node3" class="node"><title>Mature</title>
<path fill="none" stroke="black" d="M160.5,-618.5C160.5,-618.5 267.5,-618.5 267.5,-618.5 273.5,-618.5 279.5,-624.5 279.5,-630.5 279.5,-630.5 279.5,-697.5 279.5,-697.5 279.5,-703.5 273.5,-709.5 267.5,-709.5 267.5,-709.5 160.5,-709.5 160.5,-709.5 154.5,-709.5 148.5,-703.5 148.5,-697.5 148.5,-697.5 148.5,-630.5 148.5,-630.5 148.5,-624.5 154.5,-618.5 160.5,-618.5"/>
<text text-anchor="middle" x="214" y="-694.3" font-family="Times,serif" font-size="14.00">Mature</text>
<polyline fill="none" stroke="black" points="148.5,-686.5 279.5,-686.5 "/>
<text text-anchor="start" x="156.5" y="-671.3" font-family="Times,serif" font-size="14.00">id :integer</text>
<text text-anchor="start" x="156.5" y="-656.3" font-family="Times,serif" font-size="14.00">idea_id :integer</text>
<text text-anchor="start" x="156.5" y="-641.3" font-family="Times,serif" font-size="14.00">created_at :datetime</text>
<text text-anchor="start" x="156.5" y="-626.3" font-family="Times,serif" font-size="14.00">updated_at :datetime</text>
</g>
<!-- Ability -->
<g id="node4" class="node"><title>Ability</title>
<polygon fill="none" stroke="black" points="1721.5,-641 1721.5,-687 1776.5,-687 1776.5,-641 1721.5,-641"/>
<text text-anchor="middle" x="1749" y="-671.8" font-family="Times,serif" font-size="14.00">Ability</text>
<polyline fill="none" stroke="black" points="1721.5,-664 1776.5,-664 "/>
<text text-anchor="middle" x="1749" y="-648.8" font-family="Times,serif" font-size="14.00"> </text>
</g>
<!-- Subcategory -->
<g id="node5" class="node"><title>Subcategory</title>
<path fill="none" stroke="black" d="M309.5,-611C309.5,-611 416.5,-611 416.5,-611 422.5,-611 428.5,-617 428.5,-623 428.5,-623 428.5,-705 428.5,-705 428.5,-711 422.5,-717 416.5,-717 416.5,-717 309.5,-717 309.5,-717 303.5,-717 297.5,-711 297.5,-705 297.5,-705 297.5,-623 297.5,-623 297.5,-617 303.5,-611 309.5,-611"/>
<text text-anchor="middle" x="363" y="-701.8" font-family="Times,serif" font-size="14.00">Subcategory</text>
<polyline fill="none" stroke="black" points="297.5,-694 428.5,-694 "/>
<text text-anchor="start" x="305.5" y="-678.8" font-family="Times,serif" font-size="14.00">id :integer</text>
<text text-anchor="start" x="305.5" y="-663.8" font-family="Times,serif" font-size="14.00">category_id :integer</text>
<text text-anchor="start" x="305.5" y="-648.8" font-family="Times,serif" font-size="14.00">name :string</text>
<text text-anchor="start" x="305.5" y="-633.8" font-family="Times,serif" font-size="14.00">created_at :datetime</text>
<text text-anchor="start" x="305.5" y="-618.8" font-family="Times,serif" font-size="14.00">updated_at :datetime</text>
</g>
<!-- User -->
<g id="node6" class="node"><title>User</title>
<path fill="none" stroke="black" d="M535,-491C535,-491 681,-491 681,-491 687,-491 693,-497 693,-503 693,-503 693,-825 693,-825 693,-831 687,-837 681,-837 681,-837 535,-837 535,-837 529,-837 523,-831 523,-825 523,-825 523,-503 523,-503 523,-497 529,-491 535,-491"/>
<text text-anchor="middle" x="608" y="-821.8" font-family="Times,serif" font-size="14.00">User</text>
<polyline fill="none" stroke="black" points="523,-814 693,-814 "/>
<text text-anchor="start" x="531" y="-798.8" font-family="Times,serif" font-size="14.00">id :integer</text>
<text text-anchor="start" x="531" y="-783.8" font-family="Times,serif" font-size="14.00">first_name :string</text>
<text text-anchor="start" x="531" y="-768.8" font-family="Times,serif" font-size="14.00">last_name :string</text>
<text text-anchor="start" x="531" y="-753.8" font-family="Times,serif" font-size="14.00">slug :string</text>
<text text-anchor="start" x="531" y="-738.8" font-family="Times,serif" font-size="14.00">email :string</text>
<text text-anchor="start" x="531" y="-723.8" font-family="Times,serif" font-size="14.00">image :string</text>
<text text-anchor="start" x="531" y="-708.8" font-family="Times,serif" font-size="14.00">password_salt :string</text>
<text text-anchor="start" x="531" y="-693.8" font-family="Times,serif" font-size="14.00">password_hash :string</text>
<text text-anchor="start" x="531" y="-678.8" font-family="Times,serif" font-size="14.00">active :boolean</text>
<text text-anchor="start" x="531" y="-663.8" font-family="Times,serif" font-size="14.00">admin :boolean</text>
<text text-anchor="start" x="531" y="-648.8" font-family="Times,serif" font-size="14.00">first_login :boolean</text>
<text text-anchor="start" x="531" y="-633.8" font-family="Times,serif" font-size="14.00">deleted :boolean</text>
<text text-anchor="start" x="531" y="-618.8" font-family="Times,serif" font-size="14.00">sign_in_count :integer</text>
<text text-anchor="start" x="531" y="-603.8" font-family="Times,serif" font-size="14.00">last_sign_in_at :datetime</text>
<text text-anchor="start" x="531" y="-588.8" font-family="Times,serif" font-size="14.00">created_at :datetime</text>
<text text-anchor="start" x="531" y="-573.8" font-family="Times,serif" font-size="14.00">updated_at :datetime</text>
<text text-anchor="start" x="531" y="-558.8" font-family="Times,serif" font-size="14.00">avatar_file_name :string</text>
<text text-anchor="start" x="531" y="-543.8" font-family="Times,serif" font-size="14.00">avatar_content_type :string</text>
<text text-anchor="start" x="531" y="-528.8" font-family="Times,serif" font-size="14.00">avatar_file_size :integer</text>
<text text-anchor="start" x="531" y="-513.8" font-family="Times,serif" font-size="14.00">avatar_updated_at :datetime</text>
<text text-anchor="start" x="531" y="-498.8" font-family="Times,serif" font-size="14.00">idea_id :integer</text>
</g>
<!-- Token -->
<g id="node8" class="node"><title>Token</title>
<path fill="none" stroke="black" d="M174.5,-325C174.5,-325 281.5,-325 281.5,-325 287.5,-325 293.5,-331 293.5,-337 293.5,-337 293.5,-419 293.5,-419 293.5,-425 287.5,-431 281.5,-431 281.5,-431 174.5,-431 174.5,-431 168.5,-431 162.5,-425 162.5,-419 162.5,-419 162.5,-337 162.5,-337 162.5,-331 168.5,-325 174.5,-325"/>
<text text-anchor="middle" x="228" y="-415.8" font-family="Times,serif" font-size="14.00">Token</text>
<polyline fill="none" stroke="black" points="162.5,-408 293.5,-408 "/>
<text text-anchor="start" x="170.5" y="-392.8" font-family="Times,serif" font-size="14.00">id :integer</text>
<text text-anchor="start" x="170.5" y="-377.8" font-family="Times,serif" font-size="14.00">user_id :integer</text>
<text text-anchor="start" x="170.5" y="-362.8" font-family="Times,serif" font-size="14.00">value :string</text>
<text text-anchor="start" x="170.5" y="-347.8" font-family="Times,serif" font-size="14.00">created_at :datetime</text>
<text text-anchor="start" x="170.5" y="-332.8" font-family="Times,serif" font-size="14.00">updated_at :datetime</text>
</g>
<!-- User&#45;&gt;Token -->
<g id="edge5" class="edge"><title>User&#45;&gt;Token</title>
<path fill="none" stroke="#19eed3" d="M517.176,-527.974C503.087,-513.571 487.629,-500.407 471,-490 408.11,-450.642 373.625,-488.605 308,-454 299.59,-449.566 291.418,-444.007 283.709,-437.932"/>
<ellipse fill="none" stroke="#19eed3" cx="519.951" cy="-530.88" rx="4.00002" ry="4.00002"/>
<polygon fill="#19eed3" stroke="#19eed3" points="283.24,-437.544 278.408,-427.7 279.389,-434.355 275.538,-431.166 275.538,-431.166 275.538,-431.166 279.389,-434.355 272.668,-434.632 283.24,-437.544 283.24,-437.544"/>
</g>
<!-- Permission -->
<g id="node9" class="node"><title>Permission</title>
<path fill="none" stroke="black" d="M406.5,-0.5C406.5,-0.5 513.5,-0.5 513.5,-0.5 519.5,-0.5 525.5,-6.5 525.5,-12.5 525.5,-12.5 525.5,-109.5 525.5,-109.5 525.5,-115.5 519.5,-121.5 513.5,-121.5 513.5,-121.5 406.5,-121.5 406.5,-121.5 400.5,-121.5 394.5,-115.5 394.5,-109.5 394.5,-109.5 394.5,-12.5 394.5,-12.5 394.5,-6.5 400.5,-0.5 406.5,-0.5"/>
<text text-anchor="middle" x="460" y="-106.3" font-family="Times,serif" font-size="14.00">Permission</text>
<polyline fill="none" stroke="black" points="394.5,-98.5 525.5,-98.5 "/>
<text text-anchor="start" x="402.5" y="-83.3" font-family="Times,serif" font-size="14.00">id :integer</text>
<text text-anchor="start" x="402.5" y="-68.3" font-family="Times,serif" font-size="14.00">role_id :integer</text>
<text text-anchor="start" x="402.5" y="-53.3" font-family="Times,serif" font-size="14.00">user_id :integer</text>
<text text-anchor="start" x="402.5" y="-38.3" font-family="Times,serif" font-size="14.00">idea_id :integer</text>
<text text-anchor="start" x="402.5" y="-23.3" font-family="Times,serif" font-size="14.00">created_at :datetime</text>
<text text-anchor="start" x="402.5" y="-8.3" font-family="Times,serif" font-size="14.00">updated_at :datetime</text>
</g>
<!-- User&#45;&gt;Permission -->
<g id="edge9" class="edge"><title>User&#45;&gt;Permission</title>
<path fill="none" stroke="#270df9" d="M517.225,-531.977C502.177,-516.245 485.663,-501.657 468,-490 419.033,-457.685 376.379,-500.801 341,-454 267.326,-356.539 346.106,-213.372 405.914,-129.72"/>
<ellipse fill="none" stroke="#270df9" cx="519.967" cy="-534.902" rx="4.00002" ry="4.00002"/>
<polygon fill="#270df9" stroke="#270df9" points="405.954,-129.664 415.464,-124.204 408.887,-125.614 411.82,-121.565 411.82,-121.565 411.82,-121.565 408.887,-125.614 408.175,-118.925 405.954,-129.664 405.954,-129.664"/>
</g>
<!-- ApiKey -->
<g id="node11" class="node"><title>ApiKey</title>
<path fill="none" stroke="black" d="M550.5,-317.5C550.5,-317.5 657.5,-317.5 657.5,-317.5 663.5,-317.5 669.5,-323.5 669.5,-329.5 669.5,-329.5 669.5,-426.5 669.5,-426.5 669.5,-432.5 663.5,-438.5 657.5,-438.5 657.5,-438.5 550.5,-438.5 550.5,-438.5 544.5,-438.5 538.5,-432.5 538.5,-426.5 538.5,-426.5 538.5,-329.5 538.5,-329.5 538.5,-323.5 544.5,-317.5 550.5,-317.5"/>
<text text-anchor="middle" x="604" y="-423.3" font-family="Times,serif" font-size="14.00">ApiKey</text>
<polyline fill="none" stroke="black" points="538.5,-415.5 669.5,-415.5 "/>
<text text-anchor="start" x="546.5" y="-400.3" font-family="Times,serif" font-size="14.00">id :integer</text>
<text text-anchor="start" x="546.5" y="-385.3" font-family="Times,serif" font-size="14.00">user_id :integer</text>
<text text-anchor="start" x="546.5" y="-370.3" font-family="Times,serif" font-size="14.00">public_key :string</text>
<text text-anchor="start" x="546.5" y="-355.3" font-family="Times,serif" font-size="14.00">access_token :string</text>
<text text-anchor="start" x="546.5" y="-340.3" font-family="Times,serif" font-size="14.00">created_at :datetime</text>
<text text-anchor="start" x="546.5" y="-325.3" font-family="Times,serif" font-size="14.00">updated_at :datetime</text>
</g>
<!-- User&#45;&gt;ApiKey -->
<g id="edge10" class="edge"><title>User&#45;&gt;ApiKey</title>
<path fill="none" stroke="#3b4634" d="M605.46,-482.641C605.283,-470.116 605.113,-458.021 604.955,-446.788"/>
<ellipse fill="none" stroke="#3b4634" cx="605.519" cy="-486.837" rx="4" ry="4"/>
<ellipse fill="#3b4634" stroke="#3b4634" cx="604.898" cy="-442.767" rx="4" ry="4"/>
</g>
<!-- UserOauth -->
<g id="node12" class="node"><title>UserOauth</title>
<path fill="none" stroke="black" d="M700,-302.5C700,-302.5 840,-302.5 840,-302.5 846,-302.5 852,-308.5 852,-314.5 852,-314.5 852,-441.5 852,-441.5 852,-447.5 846,-453.5 840,-453.5 840,-453.5 700,-453.5 700,-453.5 694,-453.5 688,-447.5 688,-441.5 688,-441.5 688,-314.5 688,-314.5 688,-308.5 694,-302.5 700,-302.5"/>
<text text-anchor="middle" x="770" y="-438.3" font-family="Times,serif" font-size="14.00">UserOauth</text>
<polyline fill="none" stroke="black" points="688,-430.5 852,-430.5 "/>
<text text-anchor="start" x="696" y="-415.3" font-family="Times,serif" font-size="14.00">id :integer</text>
<text text-anchor="start" x="696" y="-400.3" font-family="Times,serif" font-size="14.00">user_id :integer</text>
<text text-anchor="start" x="696" y="-385.3" font-family="Times,serif" font-size="14.00">provider :string</text>
<text text-anchor="start" x="696" y="-370.3" font-family="Times,serif" font-size="14.00">uid :string</text>
<text text-anchor="start" x="696" y="-355.3" font-family="Times,serif" font-size="14.00">oauth_token :string</text>
<text text-anchor="start" x="696" y="-340.3" font-family="Times,serif" font-size="14.00">oauth_expires_at :datetime</text>
<text text-anchor="start" x="696" y="-325.3" font-family="Times,serif" font-size="14.00">created_at :datetime</text>
<text text-anchor="start" x="696" y="-310.3" font-family="Times,serif" font-size="14.00">updated_at :datetime</text>
</g>
<!-- User&#45;&gt;UserOauth -->
<g id="edge6" class="edge"><title>User&#45;&gt;UserOauth</title>
<path fill="none" stroke="#87bf33" d="M697.216,-506.597C705.816,-491.521 714.291,-476.663 722.248,-462.713"/>
<ellipse fill="none" stroke="#87bf33" cx="695.015" cy="-510.456" rx="4.00002" ry="4.00002"/>
<polygon fill="#87bf33" stroke="#87bf33" points="722.444,-462.371 731.307,-455.914 724.921,-458.027 727.398,-453.684 727.398,-453.684 727.398,-453.684 724.921,-458.027 723.49,-451.455 722.444,-462.371 722.444,-462.371"/>
</g>
<!-- Role -->
<g id="node14" class="node"><title>Role</title>
<path fill="none" stroke="black" d="M362.5,-317.5C362.5,-317.5 469.5,-317.5 469.5,-317.5 475.5,-317.5 481.5,-323.5 481.5,-329.5 481.5,-329.5 481.5,-426.5 481.5,-426.5 481.5,-432.5 475.5,-438.5 469.5,-438.5 469.5,-438.5 362.5,-438.5 362.5,-438.5 356.5,-438.5 350.5,-432.5 350.5,-426.5 350.5,-426.5 350.5,-329.5 350.5,-329.5 350.5,-323.5 356.5,-317.5 362.5,-317.5"/>
<text text-anchor="middle" x="416" y="-423.3" font-family="Times,serif" font-size="14.00">Role</text>
<polyline fill="none" stroke="black" points="350.5,-415.5 481.5,-415.5 "/>
<text text-anchor="start" x="358.5" y="-400.3" font-family="Times,serif" font-size="14.00">id :integer</text>
<text text-anchor="start" x="358.5" y="-385.3" font-family="Times,serif" font-size="14.00">user_id :integer</text>
<text text-anchor="start" x="358.5" y="-370.3" font-family="Times,serif" font-size="14.00">idea_id :integer</text>
<text text-anchor="start" x="358.5" y="-355.3" font-family="Times,serif" font-size="14.00">name :string</text>
<text text-anchor="start" x="358.5" y="-340.3" font-family="Times,serif" font-size="14.00">created_at :datetime</text>
<text text-anchor="start" x="358.5" y="-325.3" font-family="Times,serif" font-size="14.00">updated_at :datetime</text>
</g>
<!-- User&#45;&gt;Role -->
<g id="edge8" class="edge"><title>User&#45;&gt;Role</title>
<path fill="none" stroke="#863c94" d="M518.334,-503.734C515.239,-499.071 512.124,-494.483 509,-490 498.813,-475.381 487.139,-460.348 475.581,-446.252"/>
<ellipse fill="none" stroke="#863c94" cx="520.658" cy="-507.272" rx="4.00002" ry="4.00002"/>
<polygon fill="#863c94" stroke="#863c94" points="475.56,-446.227 472.648,-435.655 472.371,-442.376 469.182,-438.525 469.182,-438.525 469.182,-438.525 472.371,-442.376 465.716,-441.396 475.56,-446.227 475.56,-446.227"/>
</g>
<!-- Idea -->
<g id="node15" class="node"><title>Idea</title>
<path fill="none" stroke="black" d="M450,-159C450,-159 570,-159 570,-159 576,-159 582,-165 582,-171 582,-171 582,-253 582,-253 582,-259 576,-265 570,-265 570,-265 450,-265 450,-265 444,-265 438,-259 438,-253 438,-253 438,-171 438,-171 438,-165 444,-159 450,-159"/>
<text text-anchor="middle" x="510" y="-249.8" font-family="Times,serif" font-size="14.00">Idea</text>
<polyline fill="none" stroke="black" points="438,-242 582,-242 "/>
<text text-anchor="start" x="446" y="-226.8" font-family="Times,serif" font-size="14.00">id :integer</text>
<text text-anchor="start" x="446" y="-211.8" font-family="Times,serif" font-size="14.00">user_id :integer</text>
<text text-anchor="start" x="446" y="-196.8" font-family="Times,serif" font-size="14.00">permissions_id :integer</text>
<text text-anchor="start" x="446" y="-181.8" font-family="Times,serif" font-size="14.00">created_at :datetime</text>
<text text-anchor="start" x="446" y="-166.8" font-family="Times,serif" font-size="14.00">updated_at :datetime</text>
</g>
<!-- User&#45;&gt;Idea -->
<g id="edge7" class="edge"><title>User&#45;&gt;Idea</title>
<path fill="none" stroke="#a6122e" d="M535.798,-480.973C533.28,-471.92 530.99,-462.896 529,-454 515.659,-394.348 511.348,-324.568 510.11,-275.49"/>
<polygon fill="#a6122e" stroke="#a6122e" points="535.861,-481.191 534.292,-492.044 537.239,-485.998 538.617,-490.804 538.617,-490.804 538.617,-490.804 537.239,-485.998 542.943,-489.563 535.861,-481.191 535.861,-481.191"/>
<polygon fill="#a6122e" stroke="#a6122e" points="510.107,-275.341 514.39,-265.246 509.999,-270.342 509.891,-265.343 509.891,-265.343 509.891,-265.343 509.999,-270.342 505.392,-265.44 510.107,-275.341 510.107,-275.341"/>
</g>
<!-- UserHability -->
<g id="node7" class="node"><title>UserHability</title>
<path fill="none" stroke="black" d="M958.5,-611C958.5,-611 1065.5,-611 1065.5,-611 1071.5,-611 1077.5,-617 1077.5,-623 1077.5,-623 1077.5,-705 1077.5,-705 1077.5,-711 1071.5,-717 1065.5,-717 1065.5,-717 958.5,-717 958.5,-717 952.5,-717 946.5,-711 946.5,-705 946.5,-705 946.5,-623 946.5,-623 946.5,-617 952.5,-611 958.5,-611"/>
<text text-anchor="middle" x="1012" y="-701.8" font-family="Times,serif" font-size="14.00">UserHability</text>
<polyline fill="none" stroke="black" points="946.5,-694 1077.5,-694 "/>
<text text-anchor="start" x="954.5" y="-678.8" font-family="Times,serif" font-size="14.00">id :integer</text>
<text text-anchor="start" x="954.5" y="-663.8" font-family="Times,serif" font-size="14.00">user_id :integer</text>
<text text-anchor="start" x="954.5" y="-648.8" font-family="Times,serif" font-size="14.00">hability_id :integer</text>
<text text-anchor="start" x="954.5" y="-633.8" font-family="Times,serif" font-size="14.00">created_at :datetime</text>
<text text-anchor="start" x="954.5" y="-618.8" font-family="Times,serif" font-size="14.00">updated_at :datetime</text>
</g>
<!-- Action -->
<g id="node10" class="node"><title>Action</title>
<path fill="none" stroke="black" d="M1107.5,-611C1107.5,-611 1214.5,-611 1214.5,-611 1220.5,-611 1226.5,-617 1226.5,-623 1226.5,-623 1226.5,-705 1226.5,-705 1226.5,-711 1220.5,-717 1214.5,-717 1214.5,-717 1107.5,-717 1107.5,-717 1101.5,-717 1095.5,-711 1095.5,-705 1095.5,-705 1095.5,-623 1095.5,-623 1095.5,-617 1101.5,-611 1107.5,-611"/>
<text text-anchor="middle" x="1161" y="-701.8" font-family="Times,serif" font-size="14.00">Action</text>
<polyline fill="none" stroke="black" points="1095.5,-694 1226.5,-694 "/>
<text text-anchor="start" x="1103.5" y="-678.8" font-family="Times,serif" font-size="14.00">id :integer</text>
<text text-anchor="start" x="1103.5" y="-663.8" font-family="Times,serif" font-size="14.00">mature_id :integer</text>
<text text-anchor="start" x="1103.5" y="-648.8" font-family="Times,serif" font-size="14.00">action :string</text>
<text text-anchor="start" x="1103.5" y="-633.8" font-family="Times,serif" font-size="14.00">created_at :datetime</text>
<text text-anchor="start" x="1103.5" y="-618.8" font-family="Times,serif" font-size="14.00">updated_at :datetime</text>
</g>
<!-- Hability -->
<g id="node13" class="node"><title>Hability</title>
<path fill="none" stroke="black" d="M1256.5,-618.5C1256.5,-618.5 1363.5,-618.5 1363.5,-618.5 1369.5,-618.5 1375.5,-624.5 1375.5,-630.5 1375.5,-630.5 1375.5,-697.5 1375.5,-697.5 1375.5,-703.5 1369.5,-709.5 1363.5,-709.5 1363.5,-709.5 1256.5,-709.5 1256.5,-709.5 1250.5,-709.5 1244.5,-703.5 1244.5,-697.5 1244.5,-697.5 1244.5,-630.5 1244.5,-630.5 1244.5,-624.5 1250.5,-618.5 1256.5,-618.5"/>
<text text-anchor="middle" x="1310" y="-694.3" font-family="Times,serif" font-size="14.00">Hability</text>
<polyline fill="none" stroke="black" points="1244.5,-686.5 1375.5,-686.5 "/>
<text text-anchor="start" x="1252.5" y="-671.3" font-family="Times,serif" font-size="14.00">id :integer</text>
<text text-anchor="start" x="1252.5" y="-656.3" font-family="Times,serif" font-size="14.00">name :integer</text>
<text text-anchor="start" x="1252.5" y="-641.3" font-family="Times,serif" font-size="14.00">created_at :datetime</text>
<text text-anchor="start" x="1252.5" y="-626.3" font-family="Times,serif" font-size="14.00">updated_at :datetime</text>
</g>
<!-- Role&#45;&gt;Permission -->
<g id="edge20" class="edge"><title>Role&#45;&gt;Permission</title>
<path fill="none" stroke="#767295" d="M415.621,-309.244C416.457,-265.701 419.58,-208.111 429,-158 430.651,-149.215 432.877,-140.117 435.381,-131.18"/>
<ellipse fill="none" stroke="#767295" cx="415.552" cy="-313.483" rx="4" ry="4"/>
<polygon fill="#767295" stroke="#767295" points="435.385,-131.165 442.513,-122.832 436.79,-126.367 438.194,-121.568 438.194,-121.568 438.194,-121.568 436.79,-126.367 433.876,-120.304 435.385,-131.165 435.385,-131.165"/>
</g>
<!-- Role&#45;&gt;Idea -->
<g id="edge19" class="edge"><title>Role&#45;&gt;Idea</title>
<path fill="none" stroke="#fc0767" d="M447.738,-310.029C454.754,-297.488 462.265,-284.462 469.569,-272.179"/>
<ellipse fill="none" stroke="#fc0767" cx="445.623" cy="-313.832" rx="4.00002" ry="4.00002"/>
<ellipse fill="#fc0767" stroke="#fc0767" cx="471.785" cy="-268.474" rx="4.00002" ry="4.00002"/>
</g>
<!-- Idea&#45;&gt;Permission -->
<g id="edge23" class="edge"><title>Idea&#45;&gt;Permission</title>
<path fill="none" stroke="#db729c" d="M489.93,-151.192C487.742,-144.672 485.502,-137.996 483.28,-131.374"/>
<ellipse fill="none" stroke="#db729c" cx="491.24" cy="-155.095" rx="4.00001" ry="4.00001"/>
<polygon fill="#db729c" stroke="#db729c" points="483.227,-131.216 484.312,-120.304 481.636,-126.476 480.045,-121.735 480.045,-121.735 480.045,-121.735 481.636,-126.476 475.779,-123.167 483.227,-131.216 483.227,-131.216"/>
</g>
<!-- Idea&#45;&gt;Role -->
<g id="edge22" class="edge"><title>Idea&#45;&gt;Role</title>
<path fill="none" stroke="#5ff46d" d="M482.556,-272.244C475.714,-284.642 468.219,-297.794 460.794,-310.438"/>
<ellipse fill="none" stroke="#5ff46d" cx="484.582" cy="-268.549" rx="4.00002" ry="4.00002"/>
<ellipse fill="#5ff46d" stroke="#5ff46d" cx="458.759" cy="-313.884" rx="4.00002" ry="4.00002"/>
</g>
<!-- Postulation -->
<g id="node16" class="node"><title>Postulation</title>
<path fill="none" stroke="black" d="M1405.5,-611C1405.5,-611 1512.5,-611 1512.5,-611 1518.5,-611 1524.5,-617 1524.5,-623 1524.5,-623 1524.5,-705 1524.5,-705 1524.5,-711 1518.5,-717 1512.5,-717 1512.5,-717 1405.5,-717 1405.5,-717 1399.5,-717 1393.5,-711 1393.5,-705 1393.5,-705 1393.5,-623 1393.5,-623 1393.5,-617 1399.5,-611 1405.5,-611"/>
<text text-anchor="middle" x="1459" y="-701.8" font-family="Times,serif" font-size="14.00">Postulation</text>
<polyline fill="none" stroke="black" points="1393.5,-694 1524.5,-694 "/>
<text text-anchor="start" x="1401.5" y="-678.8" font-family="Times,serif" font-size="14.00">id :integer</text>
<text text-anchor="start" x="1401.5" y="-663.8" font-family="Times,serif" font-size="14.00">user_id :integer</text>
<text text-anchor="start" x="1401.5" y="-648.8" font-family="Times,serif" font-size="14.00">idea_id :integer</text>
<text text-anchor="start" x="1401.5" y="-633.8" font-family="Times,serif" font-size="14.00">created_at :datetime</text>
<text text-anchor="start" x="1401.5" y="-618.8" font-family="Times,serif" font-size="14.00">updated_at :datetime</text>
</g>
<!-- Category -->
<g id="node17" class="node"><title>Category</title>
<path fill="none" stroke="black" d="M1555,-611C1555,-611 1691,-611 1691,-611 1697,-611 1703,-617 1703,-623 1703,-623 1703,-705 1703,-705 1703,-711 1697,-717 1691,-717 1691,-717 1555,-717 1555,-717 1549,-717 1543,-711 1543,-705 1543,-705 1543,-623 1543,-623 1543,-617 1549,-611 1555,-611"/>
<text text-anchor="middle" x="1623" y="-701.8" font-family="Times,serif" font-size="14.00">Category</text>
<polyline fill="none" stroke="black" points="1543,-694 1703,-694 "/>
<text text-anchor="start" x="1551" y="-678.8" font-family="Times,serif" font-size="14.00">id :integer</text>
<text text-anchor="start" x="1551" y="-663.8" font-family="Times,serif" font-size="14.00">idea_id :integer</text>
<text text-anchor="start" x="1551" y="-648.8" font-family="Times,serif" font-size="14.00">recomendation_id :integer</text>
<text text-anchor="start" x="1551" y="-633.8" font-family="Times,serif" font-size="14.00">created_at :datetime</text>
<text text-anchor="start" x="1551" y="-618.8" font-family="Times,serif" font-size="14.00">updated_at :datetime</text>
</g>
<!-- ActiveRecord::Base -->
<g id="node18" class="node"><title>ActiveRecord::Base</title>
<ellipse fill="none" stroke="black" cx="770" cy="-913" rx="81.3646" ry="18"/>
<text text-anchor="middle" x="770" y="-909.3" font-family="Times,serif" font-size="14.00">ActiveRecord::Base</text>
</g>
<!-- ActiveRecord::Base&#45;&gt;Blacklist -->
<g id="edge1" class="edge"><title>ActiveRecord::Base&#45;&gt;Blacklist</title>
<path fill="none" stroke="black" d="M739.266,-896.182C722.016,-888.076 699.832,-878.901 679,-874 561.93,-846.457 237.12,-907.544 139,-838 102.221,-811.932 83.5906,-763.697 74.2301,-724.768"/>
</g>
<!-- ActiveRecord::Base&#45;&gt;Mature -->
<g id="edge2" class="edge"><title>ActiveRecord::Base&#45;&gt;Mature</title>
<path fill="none" stroke="black" d="M738.801,-896.195C721.597,-888.198 699.602,-879.122 679,-874 594.322,-852.946 358.546,-889.351 288,-838 246.799,-808.009 228.332,-750.328 220.193,-709.841"/>
</g>
<!-- ActiveRecord::Base&#45;&gt;Subcategory -->
<g id="edge4" class="edge"><title>ActiveRecord::Base&#45;&gt;Subcategory</title>
<path fill="none" stroke="black" d="M737.834,-896.302C720.721,-888.536 699.111,-879.641 679,-874 576.841,-845.344 527.817,-901.747 443,-838 404.38,-808.973 383.79,-756.786 373.227,-717.297"/>
</g>
<!-- ActiveRecord::Base&#45;&gt;User -->
<g id="edge11" class="edge"><title>ActiveRecord::Base&#45;&gt;User</title>
<path fill="none" stroke="black" d="M755.488,-895.164C743.104,-880.485 725.112,-858.406 711,-838 705.035,-829.375 699.054,-820.396 693.142,-811.264"/>
</g>
<!-- ActiveRecord::Base&#45;&gt;UserHability -->
<g id="edge12" class="edge"><title>ActiveRecord::Base&#45;&gt;UserHability</title>
<path fill="none" stroke="black" d="M821.12,-898.878C856.071,-887.669 901.429,-868.429 932,-838 965.42,-804.735 986.422,-754.899 998.476,-717.248"/>
</g>
<!-- ActiveRecord::Base&#45;&gt;Token -->
<g id="edge13" class="edge"><title>ActiveRecord::Base&#45;&gt;Token</title>
<path fill="none" stroke="black" d="M737.786,-896.467C720.661,-888.746 699.054,-879.842 679,-874 588.926,-847.759 534.841,-906.748 471,-838 418.126,-781.062 486.939,-549.528 437,-490 398.744,-444.398 359.872,-483.196 308,-454 296.884,-447.744 286.107,-439.625 276.253,-431.047"/>
</g>
<!-- ActiveRecord::Base&#45;&gt;Permission -->
<g id="edge14" class="edge"><title>ActiveRecord::Base&#45;&gt;Permission</title>
<path fill="none" stroke="black" d="M795.591,-895.918C814.1,-882.773 837.9,-862.41 850,-838 903.026,-731.027 947.293,-405.052 887,-302 808.52,-167.863 624.487,-102.932 525.596,-76.7569"/>
</g>
<!-- ActiveRecord::Base&#45;&gt;Action -->
<g id="edge15" class="edge"><title>ActiveRecord::Base&#45;&gt;Action</title>
<path fill="none" stroke="black" d="M838.437,-903.259C919.701,-891.658 1048.92,-868.974 1086,-838 1122.43,-807.571 1141.65,-756.111 1151.47,-717.207"/>
</g>
<!-- ActiveRecord::Base&#45;&gt;ApiKey -->
<g id="edge16" class="edge"><title>ActiveRecord::Base&#45;&gt;ApiKey</title>
<path fill="none" stroke="black" d="M768.499,-894.65C762.259,-824.769 737.04,-564.137 702,-490 696.425,-478.205 679.865,-458.314 661.908,-438.601"/>
</g>
<!-- ActiveRecord::Base&#45;&gt;UserOauth -->
<g id="edge17" class="edge"><title>ActiveRecord::Base&#45;&gt;UserOauth</title>
<path fill="none" stroke="black" d="M770,-894.87C770,-827.694 770,-579.751 770,-453.67"/>
</g>
<!-- ActiveRecord::Base&#45;&gt;Hability -->
<g id="edge18" class="edge"><title>ActiveRecord::Base&#45;&gt;Hability</title>
<path fill="none" stroke="black" d="M848.886,-908.482C965.416,-901.811 1176.14,-883.658 1235,-838 1275.22,-806.799 1294.25,-749.672 1303,-709.627"/>
</g>
<!-- ActiveRecord::Base&#45;&gt;Role -->
<g id="edge21" class="edge"><title>ActiveRecord::Base&#45;&gt;Role</title>
<path fill="none" stroke="black" d="M736.831,-896.448C719.815,-888.909 698.595,-880.173 679,-874 607.41,-851.447 564.581,-893.456 514,-838 461.49,-780.429 493.393,-564.635 471,-490 465.808,-472.696 458.102,-454.797 450.09,-438.557"/>
</g>
<!-- ActiveRecord::Base&#45;&gt;Idea -->
<g id="edge24" class="edge"><title>ActiveRecord::Base&#45;&gt;Idea</title>
<path fill="none" stroke="black" d="M775.815,-894.87C805.501,-806.038 935.877,-398.232 861,-302 827.124,-258.462 674.734,-232.791 582.245,-220.951"/>
</g>
<!-- ActiveRecord::Base&#45;&gt;Postulation -->
<g id="edge25" class="edge"><title>ActiveRecord::Base&#45;&gt;Postulation</title>
<path fill="none" stroke="black" d="M851.02,-911.986C998.105,-910.409 1301.48,-899.544 1384,-838 1422.44,-809.328 1441.45,-756.816 1450.67,-717.14"/>
</g>
<!-- ActiveRecord::Base&#45;&gt;Category -->
<g id="edge26" class="edge"><title>ActiveRecord::Base&#45;&gt;Category</title>
<path fill="none" stroke="black" d="M848.726,-908.595C1032.25,-900.061 1477.16,-875.702 1533,-838 1574.25,-810.15 1597.8,-757.241 1610.38,-717.235"/>
</g>
<!-- Object -->
<g id="node19" class="node"><title>Object</title>
<ellipse fill="none" stroke="black" cx="1749" cy="-913" rx="34.1708" ry="18"/>
<text text-anchor="middle" x="1749" y="-909.3" font-family="Times,serif" font-size="14.00">Object</text>
</g>
<!-- Object&#45;&gt;Ability -->
<g id="edge3" class="edge"><title>Object&#45;&gt;Ability</title>
<path fill="none" stroke="black" d="M1749,-894.631C1749,-850.817 1749,-735.836 1749,-687.216"/>
</g>
</g>
</svg>
