<?xml version="1.0" encoding="UTF-8" standalone="no"?>
<!DOCTYPE svg PUBLIC "-//W3C//DTD SVG 1.1//EN"
 "http://www.w3.org/Graphics/SVG/1.1/DTD/svg11.dtd">
<!-- Generated by graphviz version 2.36.0 (20140111.2315)
 -->
<!-- Title: models_diagram Pages: 1 -->
<svg width="853pt" height="960pt"
 viewBox="0.00 0.00 853.00 960.00" xmlns="http://www.w3.org/2000/svg" xmlns:xlink="http://www.w3.org/1999/xlink">
<g id="graph0" class="graph" transform="scale(1 1) rotate(0) translate(4 956)">
<title>models_diagram</title>
<polygon fill="white" stroke="none" points="-4,4 -4,-956 849,-956 849,4 -4,4"/>
<!-- _diagram_info -->
<g id="node1" class="node"><title>_diagram_info</title>
<text text-anchor="start" x="109" y="-937.6" font-family="Times,serif" font-size="13.00">Models diagram</text>
<text text-anchor="start" x="109" y="-923.6" font-family="Times,serif" font-size="13.00">Date: Oct 15 2015 &#45; 01:06</text>
<text text-anchor="start" x="109" y="-909.6" font-family="Times,serif" font-size="13.00">Migration version: 20151015034432</text>
<text text-anchor="start" x="109" y="-895.6" font-family="Times,serif" font-size="13.00">Generated by RailRoady 1.1.1</text>
<text text-anchor="start" x="109" y="-881.6" font-family="Times,serif" font-size="13.00">http://railroady.prestonlee.com</text>
</g>
<!-- Blacklist -->
<g id="node2" class="node"><title>Blacklist</title>
<path fill="none" stroke="black" d="M58.5,-603.5C58.5,-603.5 165.5,-603.5 165.5,-603.5 171.5,-603.5 177.5,-609.5 177.5,-615.5 177.5,-615.5 177.5,-712.5 177.5,-712.5 177.5,-718.5 171.5,-724.5 165.5,-724.5 165.5,-724.5 58.5,-724.5 58.5,-724.5 52.5,-724.5 46.5,-718.5 46.5,-712.5 46.5,-712.5 46.5,-615.5 46.5,-615.5 46.5,-609.5 52.5,-603.5 58.5,-603.5"/>
<text text-anchor="middle" x="112" y="-709.3" font-family="Times,serif" font-size="14.00">Blacklist</text>
<polyline fill="none" stroke="black" points="46.5,-701.5 177.5,-701.5 "/>
<text text-anchor="start" x="54.5" y="-686.3" font-family="Times,serif" font-size="14.00">id :integer</text>
<text text-anchor="start" x="54.5" y="-671.3" font-family="Times,serif" font-size="14.00">email_to :string</text>
<text text-anchor="start" x="54.5" y="-656.3" font-family="Times,serif" font-size="14.00">email_from :string</text>
<text text-anchor="start" x="54.5" y="-641.3" font-family="Times,serif" font-size="14.00">global :boolean</text>
<text text-anchor="start" x="54.5" y="-626.3" font-family="Times,serif" font-size="14.00">created_at :datetime</text>
<text text-anchor="start" x="54.5" y="-611.3" font-family="Times,serif" font-size="14.00">updated_at :datetime</text>
</g>
<!-- Ability -->
<g id="node3" class="node"><title>Ability</title>
<polygon fill="none" stroke="black" points="783.5,-641 783.5,-687 838.5,-687 838.5,-641 783.5,-641"/>
<text text-anchor="middle" x="811" y="-671.8" font-family="Times,serif" font-size="14.00">Ability</text>
<polyline fill="none" stroke="black" points="783.5,-664 838.5,-664 "/>
<text text-anchor="middle" x="811" y="-648.8" font-family="Times,serif" font-size="14.00"> </text>
</g>
<!-- User -->
<g id="node4" class="node"><title>User</title>
<path fill="none" stroke="black" d="M284,-491C284,-491 430,-491 430,-491 436,-491 442,-497 442,-503 442,-503 442,-825 442,-825 442,-831 436,-837 430,-837 430,-837 284,-837 284,-837 278,-837 272,-831 272,-825 272,-825 272,-503 272,-503 272,-497 278,-491 284,-491"/>
<text text-anchor="middle" x="357" y="-821.8" font-family="Times,serif" font-size="14.00">User</text>
<polyline fill="none" stroke="black" points="272,-814 442,-814 "/>
<text text-anchor="start" x="280" y="-798.8" font-family="Times,serif" font-size="14.00">id :integer</text>
<text text-anchor="start" x="280" y="-783.8" font-family="Times,serif" font-size="14.00">first_name :string</text>
<text text-anchor="start" x="280" y="-768.8" font-family="Times,serif" font-size="14.00">last_name :string</text>
<text text-anchor="start" x="280" y="-753.8" font-family="Times,serif" font-size="14.00">slug :string</text>
<text text-anchor="start" x="280" y="-738.8" font-family="Times,serif" font-size="14.00">email :string</text>
<text text-anchor="start" x="280" y="-723.8" font-family="Times,serif" font-size="14.00">image :string</text>
<text text-anchor="start" x="280" y="-708.8" font-family="Times,serif" font-size="14.00">password_salt :string</text>
<text text-anchor="start" x="280" y="-693.8" font-family="Times,serif" font-size="14.00">password_hash :string</text>
<text text-anchor="start" x="280" y="-678.8" font-family="Times,serif" font-size="14.00">active :boolean</text>
<text text-anchor="start" x="280" y="-663.8" font-family="Times,serif" font-size="14.00">admin :boolean</text>
<text text-anchor="start" x="280" y="-648.8" font-family="Times,serif" font-size="14.00">first_login :boolean</text>
<text text-anchor="start" x="280" y="-633.8" font-family="Times,serif" font-size="14.00">deleted :boolean</text>
<text text-anchor="start" x="280" y="-618.8" font-family="Times,serif" font-size="14.00">sign_in_count :integer</text>
<text text-anchor="start" x="280" y="-603.8" font-family="Times,serif" font-size="14.00">last_sign_in_at :datetime</text>
<text text-anchor="start" x="280" y="-588.8" font-family="Times,serif" font-size="14.00">created_at :datetime</text>
<text text-anchor="start" x="280" y="-573.8" font-family="Times,serif" font-size="14.00">updated_at :datetime</text>
<text text-anchor="start" x="280" y="-558.8" font-family="Times,serif" font-size="14.00">avatar_file_name :string</text>
<text text-anchor="start" x="280" y="-543.8" font-family="Times,serif" font-size="14.00">avatar_content_type :string</text>
<text text-anchor="start" x="280" y="-528.8" font-family="Times,serif" font-size="14.00">avatar_file_size :integer</text>
<text text-anchor="start" x="280" y="-513.8" font-family="Times,serif" font-size="14.00">avatar_updated_at :datetime</text>
<text text-anchor="start" x="280" y="-498.8" font-family="Times,serif" font-size="14.00">idea_id :integer</text>
</g>
<!-- Token -->
<g id="node5" class="node"><title>Token</title>
<path fill="none" stroke="black" d="M11.5,-325C11.5,-325 118.5,-325 118.5,-325 124.5,-325 130.5,-331 130.5,-337 130.5,-337 130.5,-419 130.5,-419 130.5,-425 124.5,-431 118.5,-431 118.5,-431 11.5,-431 11.5,-431 5.5,-431 -0.5,-425 -0.5,-419 -0.5,-419 -0.5,-337 -0.5,-337 -0.5,-331 5.5,-325 11.5,-325"/>
<text text-anchor="middle" x="65" y="-415.8" font-family="Times,serif" font-size="14.00">Token</text>
<polyline fill="none" stroke="black" points="-0.5,-408 130.5,-408 "/>
<text text-anchor="start" x="7.5" y="-392.8" font-family="Times,serif" font-size="14.00">id :integer</text>
<text text-anchor="start" x="7.5" y="-377.8" font-family="Times,serif" font-size="14.00">user_id :integer</text>
<text text-anchor="start" x="7.5" y="-362.8" font-family="Times,serif" font-size="14.00">value :string</text>
<text text-anchor="start" x="7.5" y="-347.8" font-family="Times,serif" font-size="14.00">created_at :datetime</text>
<text text-anchor="start" x="7.5" y="-332.8" font-family="Times,serif" font-size="14.00">updated_at :datetime</text>
</g>
<!-- User&#45;&gt;Token -->
<g id="edge3" class="edge"><title>User&#45;&gt;Token</title>
<path fill="none" stroke="#eca7f5" d="M266.135,-534.23C251.767,-518.246 236.249,-502.986 220,-490 191.117,-466.916 175.509,-474.888 145,-454 137.887,-449.13 130.787,-443.636 123.918,-437.892"/>
<ellipse fill="none" stroke="#eca7f5" cx="269.145" cy="-537.633" rx="4.00002" ry="4.00002"/>
<polygon fill="#eca7f5" stroke="#eca7f5" points="123.554,-437.579 118.91,-427.645 119.764,-434.317 115.975,-431.056 115.975,-431.056 115.975,-431.056 119.764,-434.317 113.039,-434.467 123.554,-437.579 123.554,-437.579"/>
</g>
<!-- Permission -->
<g id="node6" class="node"><title>Permission</title>
<path fill="none" stroke="black" d="M243.5,-0.5C243.5,-0.5 350.5,-0.5 350.5,-0.5 356.5,-0.5 362.5,-6.5 362.5,-12.5 362.5,-12.5 362.5,-109.5 362.5,-109.5 362.5,-115.5 356.5,-121.5 350.5,-121.5 350.5,-121.5 243.5,-121.5 243.5,-121.5 237.5,-121.5 231.5,-115.5 231.5,-109.5 231.5,-109.5 231.5,-12.5 231.5,-12.5 231.5,-6.5 237.5,-0.5 243.5,-0.5"/>
<text text-anchor="middle" x="297" y="-106.3" font-family="Times,serif" font-size="14.00">Permission</text>
<polyline fill="none" stroke="black" points="231.5,-98.5 362.5,-98.5 "/>
<text text-anchor="start" x="239.5" y="-83.3" font-family="Times,serif" font-size="14.00">id :integer</text>
<text text-anchor="start" x="239.5" y="-68.3" font-family="Times,serif" font-size="14.00">role_id :integer</text>
<text text-anchor="start" x="239.5" y="-53.3" font-family="Times,serif" font-size="14.00">user_id :integer</text>
<text text-anchor="start" x="239.5" y="-38.3" font-family="Times,serif" font-size="14.00">idea_id :integer</text>
<text text-anchor="start" x="239.5" y="-23.3" font-family="Times,serif" font-size="14.00">created_at :datetime</text>
<text text-anchor="start" x="239.5" y="-8.3" font-family="Times,serif" font-size="14.00">updated_at :datetime</text>
</g>
<!-- User&#45;&gt;Permission -->
<g id="edge7" class="edge"><title>User&#45;&gt;Permission</title>
<path fill="none" stroke="#bad70a" d="M266.842,-539.074C252.79,-522.033 237.954,-505.191 223,-490 205.032,-471.748 189.095,-477.085 178,-454 126.053,-345.919 194.153,-210.165 246.702,-130.073"/>
<ellipse fill="none" stroke="#bad70a" cx="269.449" cy="-542.262" rx="4.00002" ry="4.00002"/>
<polygon fill="#bad70a" stroke="#bad70a" points="246.838,-129.869 256.124,-124.037 249.608,-125.707 252.378,-121.544 252.378,-121.544 252.378,-121.544 249.608,-125.707 248.631,-119.051 246.838,-129.869 246.838,-129.869"/>
</g>
<!-- ApiKey -->
<g id="node7" class="node"><title>ApiKey</title>
<path fill="none" stroke="black" d="M387.5,-317.5C387.5,-317.5 494.5,-317.5 494.5,-317.5 500.5,-317.5 506.5,-323.5 506.5,-329.5 506.5,-329.5 506.5,-426.5 506.5,-426.5 506.5,-432.5 500.5,-438.5 494.5,-438.5 494.5,-438.5 387.5,-438.5 387.5,-438.5 381.5,-438.5 375.5,-432.5 375.5,-426.5 375.5,-426.5 375.5,-329.5 375.5,-329.5 375.5,-323.5 381.5,-317.5 387.5,-317.5"/>
<text text-anchor="middle" x="441" y="-423.3" font-family="Times,serif" font-size="14.00">ApiKey</text>
<polyline fill="none" stroke="black" points="375.5,-415.5 506.5,-415.5 "/>
<text text-anchor="start" x="383.5" y="-400.3" font-family="Times,serif" font-size="14.00">id :integer</text>
<text text-anchor="start" x="383.5" y="-385.3" font-family="Times,serif" font-size="14.00">user_id :integer</text>
<text text-anchor="start" x="383.5" y="-370.3" font-family="Times,serif" font-size="14.00">public_key :string</text>
<text text-anchor="start" x="383.5" y="-355.3" font-family="Times,serif" font-size="14.00">access_token :string</text>
<text text-anchor="start" x="383.5" y="-340.3" font-family="Times,serif" font-size="14.00">created_at :datetime</text>
<text text-anchor="start" x="383.5" y="-325.3" font-family="Times,serif" font-size="14.00">updated_at :datetime</text>
</g>
<!-- User&#45;&gt;ApiKey -->
<g id="edge8" class="edge"><title>User&#45;&gt;ApiKey</title>
<path fill="none" stroke="#c6b32e" d="M410.219,-483.069C413.997,-470.297 417.644,-457.966 421.025,-446.533"/>
<ellipse fill="none" stroke="#c6b32e" cx="409.056" cy="-487.001" rx="4.00001" ry="4.00001"/>
<ellipse fill="#c6b32e" stroke="#c6b32e" cx="422.188" cy="-442.603" rx="4.00001" ry="4.00001"/>
</g>
<!-- UserOauth -->
<g id="node8" class="node"><title>UserOauth</title>
<path fill="none" stroke="black" d="M537,-302.5C537,-302.5 677,-302.5 677,-302.5 683,-302.5 689,-308.5 689,-314.5 689,-314.5 689,-441.5 689,-441.5 689,-447.5 683,-453.5 677,-453.5 677,-453.5 537,-453.5 537,-453.5 531,-453.5 525,-447.5 525,-441.5 525,-441.5 525,-314.5 525,-314.5 525,-308.5 531,-302.5 537,-302.5"/>
<text text-anchor="middle" x="607" y="-438.3" font-family="Times,serif" font-size="14.00">UserOauth</text>
<polyline fill="none" stroke="black" points="525,-430.5 689,-430.5 "/>
<text text-anchor="start" x="533" y="-415.3" font-family="Times,serif" font-size="14.00">id :integer</text>
<text text-anchor="start" x="533" y="-400.3" font-family="Times,serif" font-size="14.00">user_id :integer</text>
<text text-anchor="start" x="533" y="-385.3" font-family="Times,serif" font-size="14.00">provider :string</text>
<text text-anchor="start" x="533" y="-370.3" font-family="Times,serif" font-size="14.00">uid :string</text>
<text text-anchor="start" x="533" y="-355.3" font-family="Times,serif" font-size="14.00">oauth_token :string</text>
<text text-anchor="start" x="533" y="-340.3" font-family="Times,serif" font-size="14.00">oauth_expires_at :datetime</text>
<text text-anchor="start" x="533" y="-325.3" font-family="Times,serif" font-size="14.00">created_at :datetime</text>
<text text-anchor="start" x="533" y="-310.3" font-family="Times,serif" font-size="14.00">updated_at :datetime</text>
</g>
<!-- User&#45;&gt;UserOauth -->
<g id="edge4" class="edge"><title>User&#45;&gt;UserOauth</title>
<path fill="none" stroke="#c7a620" d="M447.685,-559.982C476.265,-527.515 507.44,-492.1 534.573,-461.277"/>
<ellipse fill="none" stroke="#c7a620" cx="444.98" cy="-563.055" rx="4.00002" ry="4.00002"/>
<polygon fill="#c7a620" stroke="#c7a620" points="534.773,-461.05 544.758,-456.517 538.077,-457.297 541.381,-453.544 541.381,-453.544 541.381,-453.544 538.077,-457.297 538.003,-450.57 534.773,-461.05 534.773,-461.05"/>
</g>
<!-- Role -->
<g id="node9" class="node"><title>Role</title>
<path fill="none" stroke="black" d="M199.5,-317.5C199.5,-317.5 306.5,-317.5 306.5,-317.5 312.5,-317.5 318.5,-323.5 318.5,-329.5 318.5,-329.5 318.5,-426.5 318.5,-426.5 318.5,-432.5 312.5,-438.5 306.5,-438.5 306.5,-438.5 199.5,-438.5 199.5,-438.5 193.5,-438.5 187.5,-432.5 187.5,-426.5 187.5,-426.5 187.5,-329.5 187.5,-329.5 187.5,-323.5 193.5,-317.5 199.5,-317.5"/>
<text text-anchor="middle" x="253" y="-423.3" font-family="Times,serif" font-size="14.00">Role</text>
<polyline fill="none" stroke="black" points="187.5,-415.5 318.5,-415.5 "/>
<text text-anchor="start" x="195.5" y="-400.3" font-family="Times,serif" font-size="14.00">id :integer</text>
<text text-anchor="start" x="195.5" y="-385.3" font-family="Times,serif" font-size="14.00">user_id :integer</text>
<text text-anchor="start" x="195.5" y="-370.3" font-family="Times,serif" font-size="14.00">idea_id :integer</text>
<text text-anchor="start" x="195.5" y="-355.3" font-family="Times,serif" font-size="14.00">name :string</text>
<text text-anchor="start" x="195.5" y="-340.3" font-family="Times,serif" font-size="14.00">created_at :datetime</text>
<text text-anchor="start" x="195.5" y="-325.3" font-family="Times,serif" font-size="14.00">updated_at :datetime</text>
</g>
<!-- User&#45;&gt;Role -->
<g id="edge6" class="edge"><title>User&#45;&gt;Role</title>
<path fill="none" stroke="#28c427" d="M291.11,-483.069C286.658,-470.911 282.352,-459.153 278.337,-448.189"/>
<ellipse fill="none" stroke="#28c427" cx="292.579" cy="-487.081" rx="4.00001" ry="4.00001"/>
<polygon fill="#28c427" stroke="#28c427" points="278.325,-448.158 279.112,-437.22 276.606,-443.463 274.887,-438.768 274.887,-438.768 274.887,-438.768 276.606,-443.463 270.661,-440.315 278.325,-448.158 278.325,-448.158"/>
</g>
<!-- Idea -->
<g id="node10" class="node"><title>Idea</title>
<path fill="none" stroke="black" d="M287,-159C287,-159 407,-159 407,-159 413,-159 419,-165 419,-171 419,-171 419,-253 419,-253 419,-259 413,-265 407,-265 407,-265 287,-265 287,-265 281,-265 275,-259 275,-253 275,-253 275,-171 275,-171 275,-165 281,-159 287,-159"/>
<text text-anchor="middle" x="347" y="-249.8" font-family="Times,serif" font-size="14.00">Idea</text>
<polyline fill="none" stroke="black" points="275,-242 419,-242 "/>
<text text-anchor="start" x="283" y="-226.8" font-family="Times,serif" font-size="14.00">id :integer</text>
<text text-anchor="start" x="283" y="-211.8" font-family="Times,serif" font-size="14.00">user_id :integer</text>
<text text-anchor="start" x="283" y="-196.8" font-family="Times,serif" font-size="14.00">permissions_id :integer</text>
<text text-anchor="start" x="283" y="-181.8" font-family="Times,serif" font-size="14.00">created_at :datetime</text>
<text text-anchor="start" x="283" y="-166.8" font-family="Times,serif" font-size="14.00">updated_at :datetime</text>
</g>
<!-- User&#45;&gt;Idea -->
<g id="edge5" class="edge"><title>User&#45;&gt;Idea</title>
<path fill="none" stroke="#134098" d="M352.945,-480.52C351.325,-407.615 349.567,-328.529 348.387,-275.402"/>
<polygon fill="#134098" stroke="#134098" points="352.954,-480.951 348.678,-491.048 353.065,-485.949 353.177,-490.948 353.177,-490.948 353.177,-490.948 353.065,-485.949 357.676,-490.848 352.954,-480.951 352.954,-480.951"/>
<polygon fill="#134098" stroke="#134098" points="348.381,-275.13 352.657,-265.032 348.27,-270.131 348.158,-265.132 348.158,-265.132 348.158,-265.132 348.27,-270.131 343.66,-265.232 348.381,-275.13 348.381,-275.13"/>
</g>
<!-- Role&#45;&gt;Permission -->
<g id="edge15" class="edge"><title>Role&#45;&gt;Permission</title>
<path fill="none" stroke="#8012d5" d="M252.621,-309.244C253.457,-265.701 256.58,-208.111 266,-158 267.651,-149.215 269.877,-140.117 272.381,-131.18"/>
<ellipse fill="none" stroke="#8012d5" cx="252.552" cy="-313.483" rx="4" ry="4"/>
<polygon fill="#8012d5" stroke="#8012d5" points="272.385,-131.165 279.513,-122.832 273.79,-126.367 275.194,-121.568 275.194,-121.568 275.194,-121.568 273.79,-126.367 270.876,-120.304 272.385,-131.165 272.385,-131.165"/>
</g>
<!-- Role&#45;&gt;Idea -->
<g id="edge14" class="edge"><title>Role&#45;&gt;Idea</title>
<path fill="none" stroke="#2ec02e" d="M284.738,-310.029C291.754,-297.488 299.265,-284.462 306.569,-272.179"/>
<ellipse fill="none" stroke="#2ec02e" cx="282.623" cy="-313.832" rx="4.00002" ry="4.00002"/>
<ellipse fill="#2ec02e" stroke="#2ec02e" cx="308.785" cy="-268.474" rx="4.00002" ry="4.00002"/>
</g>
<!-- Idea&#45;&gt;Permission -->
<g id="edge18" class="edge"><title>Idea&#45;&gt;Permission</title>
<path fill="none" stroke="#de7a29" d="M326.93,-151.192C324.742,-144.672 322.502,-137.996 320.28,-131.374"/>
<ellipse fill="none" stroke="#de7a29" cx="328.24" cy="-155.095" rx="4.00001" ry="4.00001"/>
<polygon fill="#de7a29" stroke="#de7a29" points="320.227,-131.216 321.312,-120.304 318.636,-126.476 317.045,-121.735 317.045,-121.735 317.045,-121.735 318.636,-126.476 312.779,-123.167 320.227,-131.216 320.227,-131.216"/>
</g>
<!-- Idea&#45;&gt;Role -->
<g id="edge17" class="edge"><title>Idea&#45;&gt;Role</title>
<path fill="none" stroke="#2a421d" d="M319.556,-272.244C312.714,-284.642 305.219,-297.794 297.794,-310.438"/>
<ellipse fill="none" stroke="#2a421d" cx="321.582" cy="-268.549" rx="4.00002" ry="4.00002"/>
<ellipse fill="#2a421d" stroke="#2a421d" cx="295.759" cy="-313.884" rx="4.00002" ry="4.00002"/>
</g>
<!-- ActiveRecord::Base -->
<g id="node11" class="node"><title>ActiveRecord::Base</title>
<ellipse fill="none" stroke="black" cx="414" cy="-913" rx="81.3646" ry="18"/>
<text text-anchor="middle" x="414" y="-909.3" font-family="Times,serif" font-size="14.00">ActiveRecord::Base</text>
</g>
<!-- ActiveRecord::Base&#45;&gt;Blacklist -->
<g id="edge1" class="edge"><title>ActiveRecord::Base&#45;&gt;Blacklist</title>
<path fill="none" stroke="black" d="M379.83,-896.516C362.926,-889.17 342.1,-880.582 323,-874 265.914,-854.327 238.068,-877.033 192,-838 157.791,-809.015 137.383,-762.246 125.75,-724.64"/>
</g>
<!-- ActiveRecord::Base&#45;&gt;User -->
<g id="edge9" class="edge"><title>ActiveRecord::Base&#45;&gt;User</title>
<path fill="none" stroke="black" d="M409.992,-894.631C406.837,-880.96 402.083,-860.36 396.694,-837.008"/>
</g>
<!-- ActiveRecord::Base&#45;&gt;Token -->
<g id="edge10" class="edge"><title>ActiveRecord::Base&#45;&gt;Token</title>
<path fill="none" stroke="black" d="M377.754,-896.68C361.104,-889.69 341.081,-881.351 323,-874 282.708,-857.619 258.762,-872.287 232,-838 136.007,-715.016 259.538,-627.593 186,-490 174.57,-468.613 162.959,-470.295 145,-454 136.963,-446.708 128.54,-438.945 120.299,-431.283"/>
</g>
<!-- ActiveRecord::Base&#45;&gt;Permission -->
<g id="edge11" class="edge"><title>ActiveRecord::Base&#45;&gt;Permission</title>
<path fill="none" stroke="black" d="M488.69,-905.922C537.657,-897.965 599.357,-879.717 637,-838 717.793,-748.464 782.797,-406.154 722,-302 644.04,-168.444 461.243,-103.339 362.705,-76.963"/>
</g>
<!-- ActiveRecord::Base&#45;&gt;ApiKey -->
<g id="edge12" class="edge"><title>ActiveRecord::Base&#45;&gt;ApiKey</title>
<path fill="none" stroke="black" d="M425.411,-894.94C434.355,-880.48 446.083,-858.829 451,-838 486.535,-687.471 457.946,-644.511 451,-490 450.248,-473.28 448.863,-455.186 447.358,-438.556"/>
</g>
<!-- ActiveRecord::Base&#45;&gt;UserOauth -->
<g id="edge13" class="edge"><title>ActiveRecord::Base&#45;&gt;UserOauth</title>
<path fill="none" stroke="black" d="M430.971,-895.184C444.378,-881.037 462.66,-859.694 474,-838 540.203,-711.352 577.53,-547.332 594.867,-453.569"/>
</g>
<!-- ActiveRecord::Base&#45;&gt;Role -->
<g id="edge16" class="edge"><title>ActiveRecord::Base&#45;&gt;Role</title>
<path fill="none" stroke="black" d="M378.079,-896.744C335.599,-878.347 269.758,-848.579 263,-838 221.808,-773.516 236.779,-547.57 246.839,-438.628"/>
</g>
<!-- ActiveRecord::Base&#45;&gt;Idea -->
<g id="edge19" class="edge"><title>ActiveRecord::Base&#45;&gt;Idea</title>
<path fill="none" stroke="black" d="M454.889,-897.411C483.494,-885.372 520.773,-865.741 545,-838 626.479,-744.702 774.067,-399.761 698,-302 664.124,-258.462 511.734,-232.791 419.245,-220.951"/>
</g>
<!-- Object -->
<g id="node12" class="node"><title>Object</title>
<ellipse fill="none" stroke="black" cx="811" cy="-913" rx="34.1708" ry="18"/>
<text text-anchor="middle" x="811" y="-909.3" font-family="Times,serif" font-size="14.00">Object</text>
</g>
<!-- Object&#45;&gt;Ability -->
<g id="edge2" class="edge"><title>Object&#45;&gt;Ability</title>
<path fill="none" stroke="black" d="M811,-894.631C811,-850.817 811,-735.836 811,-687.216"/>
</g>
</g>
</svg>
