<?xml version="1.0" encoding="UTF-8" standalone="no"?>
<!DOCTYPE svg PUBLIC "-//W3C//DTD SVG 1.1//EN"
 "http://www.w3.org/Graphics/SVG/1.1/DTD/svg11.dtd">
<!-- Generated by graphviz version 2.36.0 (20140111.2315)
 -->
<!-- Title: models_diagram Pages: 1 -->
<svg width="1274pt" height="374pt"
 viewBox="0.00 0.00 1274.00 374.00" xmlns="http://www.w3.org/2000/svg" xmlns:xlink="http://www.w3.org/1999/xlink">
<g id="graph0" class="graph" transform="scale(1 1) rotate(0) translate(4 370)">
<title>models_diagram</title>
<polygon fill="white" stroke="none" points="-4,4 -4,-370 1270,-370 1270,4 -4,4"/>
<!-- _diagram_info -->
<g id="node1" class="node"><title>_diagram_info</title>
<text text-anchor="start" x="221" y="-351.6" font-family="Times,serif" font-size="13.00">Models diagram</text>
<text text-anchor="start" x="221" y="-337.6" font-family="Times,serif" font-size="13.00">Date: Oct 15 2015 &#45; 13:33</text>
<text text-anchor="start" x="221" y="-323.6" font-family="Times,serif" font-size="13.00">Migration version: 20151015043318</text>
<text text-anchor="start" x="221" y="-309.6" font-family="Times,serif" font-size="13.00">Generated by RailRoady 1.1.1</text>
<text text-anchor="start" x="221" y="-295.6" font-family="Times,serif" font-size="13.00">http://railroady.prestonlee.com</text>
</g>
<!-- Blacklist -->
<g id="node2" class="node"><title>Blacklist</title>
<ellipse fill="none" stroke="black" cx="42" cy="-234" rx="42.3701" ry="18"/>
<text text-anchor="middle" x="42" y="-230.3" font-family="Times,serif" font-size="14.00">Blacklist</text>
</g>
<!-- Mature -->
<g id="node3" class="node"><title>Mature</title>
<ellipse fill="none" stroke="black" cx="139" cy="-234" rx="36.096" ry="18"/>
<text text-anchor="middle" x="139" y="-230.3" font-family="Times,serif" font-size="14.00">Mature</text>
</g>
<!-- Ability -->
<g id="node4" class="node"><title>Ability</title>
<polygon fill="none" stroke="black" points="1259.25,-252 1204.75,-252 1204.75,-216 1259.25,-216 1259.25,-252"/>
<text text-anchor="middle" x="1232" y="-230.3" font-family="Times,serif" font-size="14.00">Ability</text>
</g>
<!-- Subcategory -->
<g id="node5" class="node"><title>Subcategory</title>
<ellipse fill="none" stroke="black" cx="248" cy="-234" rx="54.3924" ry="18"/>
<text text-anchor="middle" x="248" y="-230.3" font-family="Times,serif" font-size="14.00">Subcategory</text>
</g>
<!-- User -->
<g id="node6" class="node"><title>User</title>
<ellipse fill="none" stroke="black" cx="424" cy="-234" rx="26.949" ry="18"/>
<text text-anchor="middle" x="424" y="-230.3" font-family="Times,serif" font-size="14.00">User</text>
</g>
<!-- Token -->
<g id="node8" class="node"><title>Token</title>
<ellipse fill="none" stroke="black" cx="184" cy="-162" rx="33.2209" ry="18"/>
<text text-anchor="middle" x="184" y="-158.3" font-family="Times,serif" font-size="14.00">Token</text>
</g>
<!-- User&#45;&gt;Token -->
<g id="edge5" class="edge"><title>User&#45;&gt;Token</title>
<path fill="none" stroke="#75a1ca" d="M391.017,-224.79C352.405,-214.984 286.652,-197.676 231,-180 227.485,-178.884 223.842,-177.669 220.21,-176.421"/>
<ellipse fill="none" stroke="#75a1ca" cx="394.953" cy="-225.785" rx="4.00001" ry="4.00001"/>
<polygon fill="#75a1ca" stroke="#75a1ca" points="220.15,-176.4 212.213,-168.833 215.434,-174.739 210.718,-173.078 210.718,-173.078 210.718,-173.078 215.434,-174.739 209.223,-177.322 220.15,-176.4 220.15,-176.4"/>
</g>
<!-- Permission -->
<g id="node9" class="node"><title>Permission</title>
<ellipse fill="none" stroke="black" cx="327" cy="-18" rx="50.0684" ry="18"/>
<text text-anchor="middle" x="327" y="-14.3" font-family="Times,serif" font-size="14.00">Permission</text>
</g>
<!-- User&#45;&gt;Permission -->
<g id="edge9" class="edge"><title>User&#45;&gt;Permission</title>
<path fill="none" stroke="#0a5740" d="M390.13,-226.58C347.76,-217.78 278.937,-200.683 264,-180 232.896,-136.93 274.92,-76.4532 303.818,-43.2288"/>
<ellipse fill="none" stroke="#0a5740" cx="394.308" cy="-227.43" rx="4.00001" ry="4.00001"/>
<polygon fill="#0a5740" stroke="#0a5740" points="304.16,-42.847 314.183,-38.3978 307.495,-39.1217 310.83,-35.3963 310.83,-35.3963 310.83,-35.3963 307.495,-39.1217 307.477,-32.3948 304.16,-42.847 304.16,-42.847"/>
</g>
<!-- ApiKey -->
<g id="node11" class="node"><title>ApiKey</title>
<ellipse fill="none" stroke="black" cx="421" cy="-162" rx="38.0212" ry="18"/>
<text text-anchor="middle" x="421" y="-158.3" font-family="Times,serif" font-size="14.00">ApiKey</text>
</g>
<!-- User&#45;&gt;ApiKey -->
<g id="edge10" class="edge"><title>User&#45;&gt;ApiKey</title>
<path fill="none" stroke="#0f2b1e" d="M422.913,-207.64C422.643,-201.348 422.355,-194.605 422.085,-188.316"/>
<ellipse fill="none" stroke="#0f2b1e" cx="423.087" cy="-211.7" rx="4" ry="4"/>
<ellipse fill="#0f2b1e" stroke="#0f2b1e" cx="421.904" cy="-184.101" rx="4" ry="4"/>
</g>
<!-- UserOauth -->
<g id="node12" class="node"><title>UserOauth</title>
<ellipse fill="none" stroke="black" cx="526" cy="-162" rx="48.6179" ry="18"/>
<text text-anchor="middle" x="526" y="-158.3" font-family="Times,serif" font-size="14.00">UserOauth</text>
</g>
<!-- User&#45;&gt;UserOauth -->
<g id="edge6" class="edge"><title>User&#45;&gt;UserOauth</title>
<path fill="none" stroke="#d44fef" d="M449.102,-215.773C463.17,-206.119 480.816,-194.009 495.654,-183.825"/>
<ellipse fill="none" stroke="#d44fef" cx="445.534" cy="-218.222" rx="4.00002" ry="4.00002"/>
<polygon fill="#d44fef" stroke="#d44fef" points="495.773,-183.744 506.565,-181.796 499.896,-180.915 504.019,-178.085 504.019,-178.085 504.019,-178.085 499.896,-180.915 501.472,-174.375 495.773,-183.744 495.773,-183.744"/>
</g>
<!-- Role -->
<g id="node14" class="node"><title>Role</title>
<ellipse fill="none" stroke="black" cx="300" cy="-162" rx="26.949" ry="18"/>
<text text-anchor="middle" x="300" y="-158.3" font-family="Times,serif" font-size="14.00">Role</text>
</g>
<!-- User&#45;&gt;Role -->
<g id="edge8" class="edge"><title>User&#45;&gt;Role</title>
<path fill="none" stroke="#e3ed01" d="M396.947,-217.728C376.928,-206.427 349.691,-191.052 329.184,-179.475"/>
<ellipse fill="none" stroke="#e3ed01" cx="400.594" cy="-219.787" rx="4.00002" ry="4.00002"/>
<polygon fill="#e3ed01" stroke="#e3ed01" points="328.994,-179.367 322.497,-170.533 324.639,-176.909 320.285,-174.451 320.285,-174.451 320.285,-174.451 324.639,-176.909 318.073,-178.37 328.994,-179.367 328.994,-179.367"/>
</g>
<!-- Idea -->
<g id="node15" class="node"><title>Idea</title>
<ellipse fill="none" stroke="black" cx="355" cy="-90" rx="27" ry="18"/>
<text text-anchor="middle" x="355" y="-86.3" font-family="Times,serif" font-size="14.00">Idea</text>
</g>
<!-- User&#45;&gt;Idea -->
<g id="edge7" class="edge"><title>User&#45;&gt;Idea</title>
<path fill="none" stroke="#32b6d5" d="M399.506,-212.422C390.205,-203.381 380.338,-192.076 374,-180 363.873,-160.704 359.143,-136.365 356.934,-118.018"/>
<polygon fill="#32b6d5" stroke="#32b6d5" points="399.758,-212.656 404.036,-222.753 403.426,-216.054 407.094,-219.451 407.094,-219.451 407.094,-219.451 403.426,-216.054 410.152,-216.15 399.758,-212.656 399.758,-212.656"/>
<polygon fill="#32b6d5" stroke="#32b6d5" points="356.926,-117.94 360.38,-107.532 356.415,-112.966 355.903,-107.992 355.903,-107.992 355.903,-107.992 356.415,-112.966 351.427,-108.452 356.926,-117.94 356.926,-117.94"/>
</g>
<!-- UserHability -->
<g id="node7" class="node"><title>UserHability</title>
<ellipse fill="none" stroke="black" cx="725" cy="-234" rx="55.3436" ry="18"/>
<text text-anchor="middle" x="725" y="-230.3" font-family="Times,serif" font-size="14.00">UserHability</text>
</g>
<!-- Action -->
<g id="node10" class="node"><title>Action</title>
<ellipse fill="none" stroke="black" cx="833" cy="-234" rx="34.1708" ry="18"/>
<text text-anchor="middle" x="833" y="-230.3" font-family="Times,serif" font-size="14.00">Action</text>
</g>
<!-- Hability -->
<g id="node13" class="node"><title>Hability</title>
<ellipse fill="none" stroke="black" cx="925" cy="-234" rx="39.4691" ry="18"/>
<text text-anchor="middle" x="925" y="-230.3" font-family="Times,serif" font-size="14.00">Hability</text>
</g>
<!-- Role&#45;&gt;Permission -->
<g id="edge20" class="edge"><title>Role&#45;&gt;Permission</title>
<path fill="none" stroke="#cd935a" d="M304.767,-135.929C309.559,-110.725 316.924,-71.9942 321.848,-46.0947"/>
<ellipse fill="none" stroke="#cd935a" cx="304.004" cy="-139.942" rx="4.00001" ry="4.00001"/>
<polygon fill="#cd935a" stroke="#cd935a" points="321.864,-46.0133 328.152,-37.0299 322.798,-41.1013 323.732,-36.1893 323.732,-36.1893 323.732,-36.1893 322.798,-41.1013 319.311,-35.3487 321.864,-46.0133 321.864,-46.0133"/>
</g>
<!-- Role&#45;&gt;Idea -->
<g id="edge19" class="edge"><title>Role&#45;&gt;Idea</title>
<path fill="none" stroke="#6501ee" d="M311.805,-137.837C318.145,-129.073 325.996,-119.187 333.326,-110.763"/>
<ellipse fill="none" stroke="#6501ee" cx="309.491" cy="-141.136" rx="4.00002" ry="4.00002"/>
<ellipse fill="#6501ee" stroke="#6501ee" cx="336.129" cy="-107.631" rx="4.00002" ry="4.00002"/>
</g>
<!-- Idea&#45;&gt;Permission -->
<g id="edge23" class="edge"><title>Idea&#45;&gt;Permission</title>
<path fill="none" stroke="#d125cb" d="M345.311,-64.7779C342.818,-58.544 340.122,-51.8046 337.585,-45.4634"/>
<ellipse fill="none" stroke="#d125cb" cx="346.879" cy="-68.6971" rx="4.00001" ry="4.00001"/>
<polygon fill="#d125cb" stroke="#d125cb" points="337.496,-45.241 337.961,-34.2849 335.639,-40.5986 333.782,-35.9562 333.782,-35.9562 333.782,-35.9562 335.639,-40.5986 329.604,-37.6275 337.496,-45.241 337.496,-45.241"/>
</g>
<!-- Idea&#45;&gt;Role -->
<g id="edge22" class="edge"><title>Idea&#45;&gt;Role</title>
<path fill="none" stroke="#d76bbc" d="M343.192,-114.167C336.933,-122.818 329.203,-132.563 321.954,-140.915"/>
<ellipse fill="none" stroke="#d76bbc" cx="345.563" cy="-110.785" rx="4.00002" ry="4.00002"/>
<ellipse fill="#d76bbc" stroke="#d76bbc" cx="319.034" cy="-144.186" rx="4.00002" ry="4.00002"/>
</g>
<!-- Postulation -->
<g id="node16" class="node"><title>Postulation</title>
<ellipse fill="none" stroke="black" cx="1033" cy="-234" rx="50.0684" ry="18"/>
<text text-anchor="middle" x="1033" y="-230.3" font-family="Times,serif" font-size="14.00">Postulation</text>
</g>
<!-- Category -->
<g id="node17" class="node"><title>Category</title>
<ellipse fill="none" stroke="black" cx="1144" cy="-234" rx="42.3456" ry="18"/>
<text text-anchor="middle" x="1144" y="-230.3" font-family="Times,serif" font-size="14.00">Category</text>
</g>
<!-- ActiveRecord::Base -->
<g id="node18" class="node"><title>ActiveRecord::Base</title>
<ellipse fill="none" stroke="black" cx="526" cy="-327" rx="81.3646" ry="18"/>
<text text-anchor="middle" x="526" y="-323.3" font-family="Times,serif" font-size="14.00">ActiveRecord::Base</text>
</g>
<!-- ActiveRecord::Base&#45;&gt;Blacklist -->
<g id="edge1" class="edge"><title>ActiveRecord::Base&#45;&gt;Blacklist</title>
<path fill="none" stroke="black" d="M494.773,-310.305C477.561,-302.34 455.568,-293.26 435,-288 287.354,-250.241 243.031,-283.855 94,-252 87.1268,-250.531 79.8821,-248.491 73.0551,-246.332"/>
</g>
<!-- ActiveRecord::Base&#45;&gt;Mature -->
<g id="edge2" class="edge"><title>ActiveRecord::Base&#45;&gt;Mature</title>
<path fill="none" stroke="black" d="M494.274,-310.419C477.101,-302.588 455.301,-293.597 435,-288 326.356,-258.047 293.142,-280.081 184,-252 178.015,-250.46 171.73,-248.39 165.818,-246.225"/>
</g>
<!-- ActiveRecord::Base&#45;&gt;Subcategory -->
<g id="edge4" class="edge"><title>ActiveRecord::Base&#45;&gt;Subcategory</title>
<path fill="none" stroke="black" d="M491.807,-310.583C474.898,-303.252 454.074,-294.659 435,-288 386.097,-270.928 328.607,-255.274 290.41,-245.475"/>
</g>
<!-- ActiveRecord::Base&#45;&gt;User -->
<g id="edge11" class="edge"><title>ActiveRecord::Base&#45;&gt;User</title>
<path fill="none" stroke="black" d="M507.292,-309.309C487.852,-291.966 457.78,-265.137 439.585,-248.905"/>
</g>
<!-- ActiveRecord::Base&#45;&gt;UserHability -->
<g id="edge12" class="edge"><title>ActiveRecord::Base&#45;&gt;UserHability</title>
<path fill="none" stroke="black" d="M559.758,-310.563C597.46,-293.322 657.957,-265.658 694.349,-249.016"/>
</g>
<!-- ActiveRecord::Base&#45;&gt;Token -->
<g id="edge13" class="edge"><title>ActiveRecord::Base&#45;&gt;Token</title>
<path fill="none" stroke="black" d="M489.728,-310.744C473.072,-303.767 453.052,-295.42 435,-288 395.535,-271.779 381.41,-275.808 346,-252 327.481,-239.549 329.45,-228.553 311,-216 294.062,-204.476 242.821,-184.606 210.84,-172.745"/>
</g>
<!-- ActiveRecord::Base&#45;&gt;Permission -->
<g id="edge14" class="edge"><title>ActiveRecord::Base&#45;&gt;Permission</title>
<path fill="none" stroke="black" d="M550.381,-309.731C567.937,-296.488 590.335,-276.084 601,-252 620.443,-208.094 630.051,-184.337 604,-144 552.906,-64.8881 438.393,-35.3278 373.741,-24.6804"/>
</g>
<!-- ActiveRecord::Base&#45;&gt;Action -->
<g id="edge15" class="edge"><title>ActiveRecord::Base&#45;&gt;Action</title>
<path fill="none" stroke="black" d="M577.84,-312.961C631.203,-299.178 716.546,-276.13 789,-252 794.75,-250.085 800.852,-247.857 806.622,-245.656"/>
</g>
<!-- ActiveRecord::Base&#45;&gt;ApiKey -->
<g id="edge16" class="edge"><title>ActiveRecord::Base&#45;&gt;ApiKey</title>
<path fill="none" stroke="black" d="M516.419,-308.923C503.987,-287.031 481.353,-248.071 460,-216 451.643,-203.448 441.535,-189.749 433.704,-179.423"/>
</g>
<!-- ActiveRecord::Base&#45;&gt;UserOauth -->
<g id="edge17" class="edge"><title>ActiveRecord::Base&#45;&gt;UserOauth</title>
<path fill="none" stroke="black" d="M526,-308.864C526,-277.64 526,-211.812 526,-180.397"/>
</g>
<!-- ActiveRecord::Base&#45;&gt;Hability -->
<g id="edge18" class="edge"><title>ActiveRecord::Base&#45;&gt;Hability</title>
<path fill="none" stroke="black" d="M587.894,-315.346C658.284,-302.669 776.37,-279.697 876,-252 882.333,-250.239 889.039,-248.101 895.389,-245.942"/>
</g>
<!-- ActiveRecord::Base&#45;&gt;Role -->
<g id="edge21" class="edge"><title>ActiveRecord::Base&#45;&gt;Role</title>
<path fill="none" stroke="black" d="M490.835,-310.729C461.876,-297.334 420.451,-276.243 388,-252 358.059,-229.632 328.626,-197.145 312.535,-178.233"/>
</g>
<!-- ActiveRecord::Base&#45;&gt;Idea -->
<g id="edge24" class="edge"><title>ActiveRecord::Base&#45;&gt;Idea</title>
<path fill="none" stroke="black" d="M540.577,-309.068C568.507,-274.507 623.361,-194.819 583,-144 558.105,-112.654 436.508,-98.166 381.782,-93.1529"/>
</g>
<!-- ActiveRecord::Base&#45;&gt;Postulation -->
<g id="edge25" class="edge"><title>ActiveRecord::Base&#45;&gt;Postulation</title>
<path fill="none" stroke="black" d="M594.234,-317.128C682.296,-305.125 840.008,-281.751 973,-252 980.502,-250.322 988.457,-248.267 996.038,-246.173"/>
</g>
<!-- ActiveRecord::Base&#45;&gt;Category -->
<g id="edge26" class="edge"><title>ActiveRecord::Base&#45;&gt;Category</title>
<path fill="none" stroke="black" d="M601.861,-320.59C711.21,-311.778 919.003,-291.229 1092,-252 1098.76,-250.467 1105.9,-248.426 1112.64,-246.291"/>
</g>
<!-- Object -->
<g id="node19" class="node"><title>Object</title>
<ellipse fill="none" stroke="black" cx="1232" cy="-327" rx="34.1708" ry="18"/>
<text text-anchor="middle" x="1232" y="-323.3" font-family="Times,serif" font-size="14.00">Object</text>
</g>
<!-- Object&#45;&gt;Ability -->
<g id="edge3" class="edge"><title>Object&#45;&gt;Ability</title>
<path fill="none" stroke="black" d="M1232,-308.884C1232,-292.614 1232,-268.284 1232,-252.04"/>
</g>
</g>
</svg>
