<?xml version="1.0" encoding="UTF-8" standalone="no"?>
<!DOCTYPE svg PUBLIC "-//W3C//DTD SVG 1.1//EN"
 "http://www.w3.org/Graphics/SVG/1.1/DTD/svg11.dtd">
<!-- Generated by graphviz version 2.36.0 (20140111.2315)
 -->
<!-- Title: models_diagram Pages: 1 -->
<svg width="664pt" height="374pt"
 viewBox="0.00 0.00 664.00 374.00" xmlns="http://www.w3.org/2000/svg" xmlns:xlink="http://www.w3.org/1999/xlink">
<g id="graph0" class="graph" transform="scale(1 1) rotate(0) translate(4 370)">
<title>models_diagram</title>
<polygon fill="white" stroke="none" points="-4,4 -4,-370 660,-370 660,4 -4,4"/>
<!-- _diagram_info -->
<g id="node1" class="node"><title>_diagram_info</title>
<text text-anchor="start" x="8" y="-351.6" font-family="Times,serif" font-size="13.00">Models diagram</text>
<text text-anchor="start" x="8" y="-337.6" font-family="Times,serif" font-size="13.00">Date: Oct 15 2015 &#45; 01:06</text>
<text text-anchor="start" x="8" y="-323.6" font-family="Times,serif" font-size="13.00">Migration version: 20151015034432</text>
<text text-anchor="start" x="8" y="-309.6" font-family="Times,serif" font-size="13.00">Generated by RailRoady 1.1.1</text>
<text text-anchor="start" x="8" y="-295.6" font-family="Times,serif" font-size="13.00">http://railroady.prestonlee.com</text>
</g>
<!-- Blacklist -->
<g id="node2" class="node"><title>Blacklist</title>
<ellipse fill="none" stroke="black" cx="120" cy="-234" rx="42.3701" ry="18"/>
<text text-anchor="middle" x="120" y="-230.3" font-family="Times,serif" font-size="14.00">Blacklist</text>
</g>
<!-- Ability -->
<g id="node3" class="node"><title>Ability</title>
<polygon fill="none" stroke="black" points="649.25,-252 594.75,-252 594.75,-216 649.25,-216 649.25,-252"/>
<text text-anchor="middle" x="622" y="-230.3" font-family="Times,serif" font-size="14.00">Ability</text>
</g>
<!-- User -->
<g id="node4" class="node"><title>User</title>
<ellipse fill="none" stroke="black" cx="283" cy="-234" rx="26.949" ry="18"/>
<text text-anchor="middle" x="283" y="-230.3" font-family="Times,serif" font-size="14.00">User</text>
</g>
<!-- Token -->
<g id="node5" class="node"><title>Token</title>
<ellipse fill="none" stroke="black" cx="109" cy="-162" rx="33.2209" ry="18"/>
<text text-anchor="middle" x="109" y="-158.3" font-family="Times,serif" font-size="14.00">Token</text>
</g>
<!-- User&#45;&gt;Token -->
<g id="edge3" class="edge"><title>User&#45;&gt;Token</title>
<path fill="none" stroke="#7e0cfb" d="M252.632,-220.783C222.413,-208.626 176.072,-189.983 144.247,-177.18"/>
<ellipse fill="none" stroke="#7e0cfb" cx="256.542" cy="-222.356" rx="4.00001" ry="4.00001"/>
<polygon fill="#7e0cfb" stroke="#7e0cfb" points="144.148,-177.14 136.55,-169.233 139.509,-175.274 134.87,-173.408 134.87,-173.408 134.87,-173.408 139.509,-175.274 133.191,-177.582 144.148,-177.14 144.148,-177.14"/>
</g>
<!-- Permission -->
<g id="node6" class="node"><title>Permission</title>
<ellipse fill="none" stroke="black" cx="252" cy="-18" rx="50.0684" ry="18"/>
<text text-anchor="middle" x="252" y="-14.3" font-family="Times,serif" font-size="14.00">Permission</text>
</g>
<!-- User&#45;&gt;Permission -->
<g id="edge7" class="edge"><title>User&#45;&gt;Permission</title>
<path fill="none" stroke="#35064a" d="M250.246,-223.987C228.695,-216.166 202.13,-202.476 189,-180 162.342,-134.366 202.159,-75.3413 229.618,-42.9347"/>
<ellipse fill="none" stroke="#35064a" cx="254.139" cy="-225.316" rx="4.00001" ry="4.00001"/>
<polygon fill="#35064a" stroke="#35064a" points="229.711,-42.8286 239.676,-38.2521 232.998,-39.0611 236.285,-35.2936 236.285,-35.2936 236.285,-35.2936 232.998,-39.0611 232.894,-32.3351 229.711,-42.8286 229.711,-42.8286"/>
</g>
<!-- ApiKey -->
<g id="node7" class="node"><title>ApiKey</title>
<ellipse fill="none" stroke="black" cx="346" cy="-162" rx="38.0212" ry="18"/>
<text text-anchor="middle" x="346" y="-158.3" font-family="Times,serif" font-size="14.00">ApiKey</text>
</g>
<!-- User&#45;&gt;ApiKey -->
<g id="edge8" class="edge"><title>User&#45;&gt;ApiKey</title>
<path fill="none" stroke="#5290b8" d="M301.769,-212.145C309.509,-203.545 318.482,-193.576 326.315,-184.872"/>
<ellipse fill="none" stroke="#5290b8" cx="299.037" cy="-215.182" rx="4.00002" ry="4.00002"/>
<ellipse fill="#5290b8" stroke="#5290b8" cx="329.107" cy="-181.77" rx="4.00002" ry="4.00002"/>
</g>
<!-- UserOauth -->
<g id="node8" class="node"><title>UserOauth</title>
<ellipse fill="none" stroke="black" cx="451" cy="-162" rx="48.6179" ry="18"/>
<text text-anchor="middle" x="451" y="-158.3" font-family="Times,serif" font-size="14.00">UserOauth</text>
</g>
<!-- User&#45;&gt;UserOauth -->
<g id="edge4" class="edge"><title>User&#45;&gt;UserOauth</title>
<path fill="none" stroke="#fcbf96" d="M312.99,-220.504C340.223,-209.157 380.605,-192.331 410.66,-179.808"/>
<ellipse fill="none" stroke="#fcbf96" cx="309.001" cy="-222.166" rx="4.00001" ry="4.00001"/>
<polygon fill="#fcbf96" stroke="#fcbf96" points="410.795,-179.752 421.756,-180.06 415.41,-177.829 420.026,-175.906 420.026,-175.906 420.026,-175.906 415.41,-177.829 418.295,-171.752 410.795,-179.752 410.795,-179.752"/>
</g>
<!-- Role -->
<g id="node9" class="node"><title>Role</title>
<ellipse fill="none" stroke="black" cx="225" cy="-162" rx="26.949" ry="18"/>
<text text-anchor="middle" x="225" y="-158.3" font-family="Times,serif" font-size="14.00">Role</text>
</g>
<!-- User&#45;&gt;Role -->
<g id="edge6" class="edge"><title>User&#45;&gt;Role</title>
<path fill="none" stroke="#6ee0b0" d="M265.11,-211.409C258.418,-203.332 250.796,-194.134 244.007,-185.94"/>
<ellipse fill="none" stroke="#6ee0b0" cx="267.863" cy="-214.731" rx="4.00002" ry="4.00002"/>
<polygon fill="#6ee0b0" stroke="#6ee0b0" points="243.941,-185.86 241.026,-175.288 240.751,-182.009 237.561,-178.159 237.561,-178.159 237.561,-178.159 240.751,-182.009 234.095,-181.03 243.941,-185.86 243.941,-185.86"/>
</g>
<!-- Idea -->
<g id="node10" class="node"><title>Idea</title>
<ellipse fill="none" stroke="black" cx="280" cy="-90" rx="27" ry="18"/>
<text text-anchor="middle" x="280" y="-86.3" font-family="Times,serif" font-size="14.00">Idea</text>
</g>
<!-- User&#45;&gt;Idea -->
<g id="edge5" class="edge"><title>User&#45;&gt;Idea</title>
<path fill="none" stroke="#a107d8" d="M282.423,-205.679C281.893,-180.599 281.112,-143.627 280.581,-118.493"/>
<polygon fill="#a107d8" stroke="#a107d8" points="282.427,-205.874 278.139,-215.967 282.532,-210.873 282.638,-215.871 282.638,-215.871 282.638,-215.871 282.532,-210.873 287.137,-215.776 282.427,-205.874 282.427,-205.874"/>
<polygon fill="#a107d8" stroke="#a107d8" points="280.574,-118.187 284.862,-108.094 280.469,-113.188 280.363,-108.189 280.363,-108.189 280.363,-108.189 280.469,-113.188 275.864,-108.284 280.574,-118.187 280.574,-118.187"/>
</g>
<!-- Role&#45;&gt;Permission -->
<g id="edge15" class="edge"><title>Role&#45;&gt;Permission</title>
<path fill="none" stroke="#875da8" d="M229.767,-135.929C234.559,-110.725 241.924,-71.9942 246.848,-46.0947"/>
<ellipse fill="none" stroke="#875da8" cx="229.004" cy="-139.942" rx="4.00001" ry="4.00001"/>
<polygon fill="#875da8" stroke="#875da8" points="246.864,-46.0133 253.152,-37.0299 247.798,-41.1013 248.732,-36.1893 248.732,-36.1893 248.732,-36.1893 247.798,-41.1013 244.311,-35.3487 246.864,-46.0133 246.864,-46.0133"/>
</g>
<!-- Role&#45;&gt;Idea -->
<g id="edge14" class="edge"><title>Role&#45;&gt;Idea</title>
<path fill="none" stroke="#7c1eba" d="M236.805,-137.837C243.145,-129.073 250.996,-119.187 258.326,-110.763"/>
<ellipse fill="none" stroke="#7c1eba" cx="234.491" cy="-141.136" rx="4.00002" ry="4.00002"/>
<ellipse fill="#7c1eba" stroke="#7c1eba" cx="261.129" cy="-107.631" rx="4.00002" ry="4.00002"/>
</g>
<!-- Idea&#45;&gt;Permission -->
<g id="edge18" class="edge"><title>Idea&#45;&gt;Permission</title>
<path fill="none" stroke="#b90fc3" d="M270.311,-64.7779C267.818,-58.544 265.122,-51.8046 262.585,-45.4634"/>
<ellipse fill="none" stroke="#b90fc3" cx="271.879" cy="-68.6971" rx="4.00001" ry="4.00001"/>
<polygon fill="#b90fc3" stroke="#b90fc3" points="262.496,-45.241 262.961,-34.2849 260.639,-40.5986 258.782,-35.9562 258.782,-35.9562 258.782,-35.9562 260.639,-40.5986 254.604,-37.6275 262.496,-45.241 262.496,-45.241"/>
</g>
<!-- Idea&#45;&gt;Role -->
<g id="edge17" class="edge"><title>Idea&#45;&gt;Role</title>
<path fill="none" stroke="#57f520" d="M268.192,-114.167C261.933,-122.818 254.203,-132.563 246.954,-140.915"/>
<ellipse fill="none" stroke="#57f520" cx="270.563" cy="-110.785" rx="4.00002" ry="4.00002"/>
<ellipse fill="#57f520" stroke="#57f520" cx="244.034" cy="-144.186" rx="4.00002" ry="4.00002"/>
</g>
<!-- ActiveRecord::Base -->
<g id="node11" class="node"><title>ActiveRecord::Base</title>
<ellipse fill="none" stroke="black" cx="313" cy="-327" rx="81.3646" ry="18"/>
<text text-anchor="middle" x="313" y="-323.3" font-family="Times,serif" font-size="14.00">ActiveRecord::Base</text>
</g>
<!-- ActiveRecord::Base&#45;&gt;Blacklist -->
<g id="edge1" class="edge"><title>ActiveRecord::Base&#45;&gt;Blacklist</title>
<path fill="none" stroke="black" d="M279.822,-310.357C242.316,-292.672 181.961,-264.215 147.144,-247.798"/>
</g>
<!-- ActiveRecord::Base&#45;&gt;User -->
<g id="edge9" class="edge"><title>ActiveRecord::Base&#45;&gt;User</title>
<path fill="none" stroke="black" d="M307.357,-308.884C301.96,-292.511 293.871,-267.975 288.516,-251.732"/>
</g>
<!-- ActiveRecord::Base&#45;&gt;Token -->
<g id="edge10" class="edge"><title>ActiveRecord::Base&#45;&gt;Token</title>
<path fill="none" stroke="black" d="M292.317,-309.474C252.204,-277.423 164.48,-207.329 126.788,-177.213"/>
</g>
<!-- ActiveRecord::Base&#45;&gt;Permission -->
<g id="edge11" class="edge"><title>ActiveRecord::Base&#45;&gt;Permission</title>
<path fill="none" stroke="black" d="M373.462,-314.897C413.621,-304.7 465.015,-285.841 499,-252 534.218,-216.931 554.936,-185.768 528,-144 477.113,-65.0908 363.004,-35.4505 298.578,-24.7361"/>
</g>
<!-- ActiveRecord::Base&#45;&gt;ApiKey -->
<g id="edge12" class="edge"><title>ActiveRecord::Base&#45;&gt;ApiKey</title>
<path fill="none" stroke="black" d="M316.469,-308.864C322.791,-277.64 336.118,-211.812 342.478,-180.397"/>
</g>
<!-- ActiveRecord::Base&#45;&gt;UserOauth -->
<g id="edge13" class="edge"><title>ActiveRecord::Base&#45;&gt;UserOauth</title>
<path fill="none" stroke="black" d="M327.249,-309.17C353.83,-277.773 410.669,-210.637 437.034,-179.496"/>
</g>
<!-- ActiveRecord::Base&#45;&gt;Role -->
<g id="edge16" class="edge"><title>ActiveRecord::Base&#45;&gt;Role</title>
<path fill="none" stroke="black" d="M293.714,-309.351C278.815,-295.461 258.805,-274.383 247,-252 234.823,-228.911 229.219,-198.879 226.764,-180.276"/>
</g>
<!-- ActiveRecord::Base&#45;&gt;Idea -->
<g id="edge19" class="edge"><title>ActiveRecord::Base&#45;&gt;Idea</title>
<path fill="none" stroke="black" d="M352.437,-311.187C424.165,-282.067 563.657,-214.079 508,-144 483.105,-112.654 361.508,-98.166 306.782,-93.1529"/>
</g>
<!-- Object -->
<g id="node12" class="node"><title>Object</title>
<ellipse fill="none" stroke="black" cx="622" cy="-327" rx="34.1708" ry="18"/>
<text text-anchor="middle" x="622" y="-323.3" font-family="Times,serif" font-size="14.00">Object</text>
</g>
<!-- Object&#45;&gt;Ability -->
<g id="edge2" class="edge"><title>Object&#45;&gt;Ability</title>
<path fill="none" stroke="black" d="M622,-308.884C622,-292.614 622,-268.284 622,-252.04"/>
</g>
</g>
</svg>
